/* XPM */
static char *xpm_[] = {
/* columns rows colors chars-per-pixel */
"64 64 128 2 ",
"   c #000000",
".  c #0A0101",
"X  c #06180B",
"o  c #0B1E0B",
"O  c #0F1919",
"+  c #260506",
"@  c #2A0306",
"#  c #320507",
"$  c #380307",
"%  c #350608",
"&  c #390709",
"*  c #321A0F",
"=  c #390F13",
"-  c #391415",
";  c #331D11",
":  c #381E12",
">  c #0B210E",
",  c #0C2411",
"<  c #163916",
"1  c #1A3D1A",
"2  c #372013",
"3  c #3B2F31",
"4  c #3C3A3C",
"5  c #440406",
"6  c #570A0D",
"7  c #65070D",
"8  c #660C0F",
"9  c #670C10",
"0  c #6A0D10",
"q  c #66191C",
"w  c #17411E",
"e  c #1B421F",
"r  c #245528",
"t  c #33572A",
"y  c #34592B",
"u  c #354336",
"i  c #394639",
"p  c #3A483A",
"a  c #325F32",
"s  c #356335",
"d  c #336F33",
"f  c #337235",
"g  c #377738",
"h  c #397E3B",
"j  c #3C3F40",
"k  c #6C5D60",
"l  c #6D6A6D",
"z  c #6D6D70",
"x  c #8A0E14",
"c  c #861014",
"v  c #891517",
"b  c #8B1718",
"n  c #961217",
"m  c #A31016",
"M  c #B11117",
"N  c #B4141B",
"B  c #BA151C",
"V  c #C5161D",
"C  c #CA151E",
"Z  c #CA181E",
"A  c #DF141B",
"S  c #EC0E16",
"D  c #ED151D",
"F  c #F1151D",
"G  c #DF1A22",
"H  c #E41B22",
"J  c #ED1C24",
"K  c #F21720",
"L  c #F21C25",
"P  c #FA1E26",
"I  c #EE262E",
"U  c #EE2931",
"Y  c #F32D35",
"T  c #B43E42",
"R  c #BA3D44",
"E  c #C54046",
"W  c #F04147",
"Q  c #F0454B",
"!  c #F3494F",
"~  c #FA484F",
"^  c #F24E54",
"/  c #F25057",
"(  c #F25359",
")  c #F86368",
"_  c #F46F74",
"`  c #EB7277",
"'  c #3A803C",
"]  c #449245",
"[  c #489848",
"{  c #F57E82",
"}  c #939693",
"|  c #939996",
" . c #BB9697",
".. c #C0999C",
"X. c #F88085",
"o. c #EA9DA0",
"O. c #F79EA1",
"+. c #D1AAAD",
"@. c #FFA4A7",
"#. c #F8ACAF",
"$. c #C0BFC0",
"%. c #FABEC0",
"&. c #BFC2C2",
"*. c #C2C2C3",
"=. c #C1C7C8",
"-. c #C1C9CA",
";. c #D5D3D5",
":. c #D5D7D8",
">. c #D5D9DA",
",. c #FDCCCE",
"<. c #FBC9CB",
"1. c #FBCFD1",
"2. c #FFCFD1",
"3. c #FBCED0",
"4. c #FCD5D7",
"5. c #FED3D4",
"6. c #FCD6D8",
"7. c #FCDADB",
"8. c #FEDADC",
"9. c #ECF4F4",
"0. c #F6F5F6",
"q. c #FEF2F2",
"w. c #FEF4F5",
"e. c #FFF4F5",
"r. c #F6FAFB",
"t. c white",
"y. c #FFFFFF",
"u. c None",
/* pixels */
"[ [ [ [ [ [ [ [ [ [ [ [ [ [ [ [ [ [ [ [ [ [ [ g >                             , g [ [ [ [ [ [ [ [ [ [ [ ] [ [ [ [ [ [ [ [ [ [ [ ",
"[ [ [ [ [ [ [ ] [ [ [ ] [ [ [ [ [ [ [ [ [ ] h s p i 4 4 4 3 - & & & % % & & & 2 y ' [ [ [ [ [ [ [ [ [ [ [ [ [ [ [ [ [ ] [ [ [ [ ",
"[ [ [ [ [ [ [ [ [ [ [ [ [ [ [ [ [ [ [ [ [ ' < u } *.*.*.*. .T N M N N N N N N b ; w ' [ [ [ [ [ [ [ [ [ [ [ [ [ [ [ [ [ ] [ [ [ ",
"[ [ [ [ [ [ [ ] [ [ [ [ [ [ [ ] [ [ [ ] ' a u l ;.t.t.t.t.2.( K K L L L L L P V 9 ; y h ] [ [ [ [ [ [ [ [ [ [ [ [ [ [ [ [ [ [ [ ",
"[ [ [ [ [ ] [ [ [ ] [ [ [ [ [ [ [ [ [ h < u } ;.0.t.t.t.t.<.( K J L J L I L L H Z v ; 1 ' [ [ [ [ [ [ [ [ [ [ [ [ [ [ [ [ [ [ [ ",
"] [ [ [ [ [ [ [ [ [ [ [ [ [ [ [ [ ] ' s u l ;.t.t.t.t.t.t.,.( F F L J J D J J L L V 7 ; y ' [ [ [ [ [ [ [ [ [ [ [ [ [ [ [ [ [ [ ",
"[ [ [ [ [ [ [ [ [ [ [ [ [ [ [ [ [ h < u } ;.0.t.t.t.t.t.t.,.( F L L J J J J J J L H Z b 2 e ' [ [ [ [ [ [ [ [ [ [ [ [ [ [ [ [ [ ",
"[ [ [ [ [ [ [ [ [ [ [ [ [ [ [ ] g a u z ;.t.t.t.t.q.4.<.,.o.E M M V H L J D I J L J C x @ X r h ] [ [ [ [ [ ] [ ] [ [ ] [ [ [ [ ",
"[ [ [ [ [ [ [ [ [ [ [ [ [ [ [ h < u | :.r.t.t.t.t.4.` ^ / E q # # 8 V L L J J L L Z 0 + . . X e ' [ [ [ [ [ [ [ [ [ ] [ [ [ [ [ ",
"[ [ [ [ [ [ [ [ [ [ [ [ [ ] g a u k +.2.,.6.w.t.t.,.( F F M #     + c Z H I J H V c +     . @ : y h [ [ [ [ [ [ [ [ [ [ [ [ [ [ ",
"[ [ [ [ [ [ [ [ [ [ [ [ [ h < u | +.` / ^ { 8.t.t.<.( F F N #     . + 8 V L L Z 8 + .     @ x b : w h [ [ [ [ [ [ [ [ [ [ [ [ [ ",
"[ [ [ [ [ [ [ [ [ [ [ ] ' s u z :.5./ S S W O.2.3.@.Q J K V 8 + .     % N P P N %     . + 0 Z Z 9 ; a ' ] [ [ [ [ [ [ [ [ ] [ [ ",
"[ [ [ [ [ [ [ [ [ [ [ g 1 i } :.r.<.^ S D I Q ( ( Q U J J H V c +     % N P P N %     + c V H H V v : e ' [ [ [ [ [ [ [ [ [ [ [ ",
"[ ] [ [ [ [ [ [ [ [ [ f o 4 *.t.y.6.{ W I D D D D J J J J L L Z 8 % % 6 n B B n 6 % % 0 V P L L P N $ o g [ [ [ [ ] [ [ [ [ [ [ ",
"[ [ [ [ [ [ [ [ [ [ [ f o 4 *.t.y.w.6.O.W S D D D D J J J J I G V N N n 6 % % 6 n N N V H I J L L N $ O f [ [ [ [ [ [ [ [ [ [ [ ",
"[ [ [ [ [ [ [ [ [ [ [ d o 4 $.t.y.y.y.7.{ ^ ( Q U J J J J J J J J P P N %     & N P L L J J J K L M % , f [ [ [ [ [ [ [ [ [ [ ] ",
"] [ [ ] [ [ [ [ [ [ [ f > 4 &.r.t.t.t.w.6.<.<.@.Q J J J J J J J L L L B &     & N P L L J J J J L N $ , g [ [ [ [ [ [ [ [ [ [ [ ",
"[ [ [ [ [ [ [ [ [ [ [ h > 4 +.y.t.t.t.t.t.t.r.<.( D D J J J J J L L L N &     & N L J J J J J L L B $ , g [ [ [ [ [ [ [ [ [ [ [ ",
"[ [ [ [ [ ] [ [ [ [ [ f > 4 $.y.t.t.t.t.t.t.t.<.( J J J J J J J L L L N &     & N L J L J J J J L M $ , g [ [ [ [ [ [ [ [ [ [ [ ",
"[ [ [ [ [ [ [ [ [ [ [ f > 4 $.y.t.t.t.t.t.t.t.<.( D D J J J J J J J L N &     & N L L I J J J L L N $ , h [ [ [ [ [ [ [ [ [ [ [ ",
"[ ] [ [ [ [ [ [ [ [ [ f o 4 $.t.y.y.y.y.t.t.t.<.( J J J J J J J J L L N &     & N L J J J J J J L N $ , f [ [ [ [ [ [ [ [ ] [ [ ",
"[ [ [ [ [ [ [ [ [ [ [ g o 4 $.t.y.y.y.y.t.t.y.<.( D D J J J J J J L L N &     & N P J J J J J J L N $ , g [ [ [ [ [ [ [ [ [ [ [ ",
"[ [ [ [ [ [ [ [ [ [ [ d o 4 $.t.y.y.y.y.y.y.y.<.( D J J J J J J J L I N &     & N L L J J J J J L N $ , f [ [ [ [ [ ] [ [ [ [ [ ",
"[ [ [ [ [ [ ] [ [ [ [ f o 4 $.t.y.y.y.y.y.y.y.<.( D J J J J J J J J L N &     = N L L J L I J L L N $ , g [ [ [ [ [ [ [ [ [ [ [ ",
"[ [ [ [ [ [ [ [ ] [ [ f o 4 &.t.y.y.y.y.t.t.t.<./ D J J I J J J J L L N &     & N L L J J J J J L N % , h [ [ [ ] [ ] [ [ [ [ [ ",
"[ [ ] [ [ [ [ [ [ [ [ f o 4 $.t.y.y.y.y.t.t.t.<./ D J J J J H J J L L N &     & N L L J J J J L L N $ , g [ [ [ [ [ [ [ [ [ [ [ ",
"[ [ [ [ [ [ ] [ [ [ [ g o 4 &.t.y.y.y.y.t.t.r.<.( D J J J J J J J L L N &     & N L L J J J J J L N % , g [ [ [ [ [ [ [ [ ] [ [ ",
"[ [ [ [ [ [ [ [ [ [ [ f o 4 $.t.y.y.y.y.t.t.t.<.( D D J J J J J J L L N &     & N L J J J J J J L N % , g [ [ [ [ [ [ [ [ [ [ [ ",
"[ [ [ [ [ [ [ [ [ [ [ g o 4 &.r.y.y.y.y.y.y.y.<.( J J J J J J J J L L B &     & N L L J J J J J L N $ , f [ [ [ [ ] [ [ [ [ [ [ ",
"[ [ [ [ [ [ [ [ [ [ [ f o 4 +.y.y.y.y.y.y.y.y.<.( D D J J J J J J L L B &     & N L L L J J J L L N $ , g [ [ [ [ [ [ [ [ [ [ [ ",
"[ [ [ [ ] [ [ [ [ [ [ g o 4 $.y.y.y.y.y.y.y.y.<.( D J J J J J J J J L N &     & N L L J J J J L L N $ , g [ [ [ [ [ [ [ [ [ [ [ ",
"[ ] [ [ [ [ [ [ [ [ [ g o 4 $.y.y.y.y.y.y.y.y.<.( D J J J J J J I J L N &     & N L L J J J J L L N $ , f [ [ [ [ [ [ [ [ [ ] [ ",
"[ [ [ [ [ [ [ [ [ [ [ f o 4 $.t.t.t.t.t.t.t.r.<.( D J J J J J J J L L N &     & N L L J J J L L L N % O g [ [ [ [ [ [ [ [ [ [ [ ",
"[ [ [ [ [ [ [ [ [ [ [ f o 4 $.t.t.t.t.t.t.t.t.<.( D D J J J I J J L L N &     & N L L J J J I J L N % , g [ [ [ [ [ [ [ [ [ [ [ ",
"[ [ [ [ [ [ [ [ [ [ [ f o 4 $.t.t.t.t.t.t.t.y.<.( D J J J J J J J J L N &     & N L L J J J J J L N $ > g [ [ [ [ [ [ [ [ [ [ ] ",
"] [ ] [ [ [ [ [ [ [ [ f o 4 $.t.t.t.t.t.t.t.y.<.( J D J J J J J J L L N &     & N L L J J J J J L N % , h [ [ [ [ [ [ [ [ [ [ [ ",
"[ [ [ [ [ [ [ [ [ [ [ g > 4 $.t.t.t.t.t.y.y.y.<.( D J J J J J J J L L N &     = N L L J J J J L L N $ , f [ [ [ [ [ [ [ [ [ [ [ ",
"[ [ [ [ [ [ [ [ [ [ [ f o 4 $.t.t.t.t.t.y.y.y.<.( D J J J J J J J L L N &     & N L L L J J J J K N $ , g [ [ [ [ [ [ [ [ [ [ [ ",
"[ [ [ [ [ [ [ [ [ [ [ g o 4 $.y.t.t.t.t.y.y.y.<./ D D J J J J J J L L N &     & N L J J J J J L L N $ , g [ [ [ [ ] [ [ [ [ [ [ ",
"[ [ [ [ [ [ [ [ [ [ [ f o 4 $.y.t.t.t.t.y.y.y.<./ D D J J J H J J L L N &     & N I J J J J J L L N $ , f [ [ [ [ [ [ [ [ [ ] [ ",
"] [ [ [ [ [ [ [ [ [ [ f > 4 $.y.t.t.t.t.t.t.t.<./ D D D J J J J J L L N &     & N L L J L J J J L N % , h [ [ [ [ [ [ ] [ [ [ [ ",
"[ [ [ [ [ ] [ [ [ [ [ h > 4 &.y.t.t.t.q.4.<.<.#._ / ^ Q U D J J J L L N &     & N L L J J J J L L N $ , g [ [ [ [ [ [ [ [ [ [ [ ",
"[ [ [ [ [ [ [ [ [ [ [ f > 4 +.y.t.t.t.4.{ ^ ^ _ #.1.1.O.W D D J I L L N &     & N L L J J J J L L N % , f [ [ [ [ [ [ [ [ [ [ [ ",
"[ [ [ [ [ [ [ [ [ [ [ f > 4 &.y.t.t.t.<.^ S S / <.t.t.8.X.W U J J L L N &     & N L L J J J J J L N % , g [ [ [ [ [ [ [ ] [ [ [ ",
"[ [ ] [ [ [ ] [ [ [ [ f o 4 *.t.y.y.t.<./ D S / <.t.t.e.8.O.Q D J J L N &     & N L L J J J J L L N $ , g [ [ [ [ [ [ [ [ [ [ [ ",
"[ [ [ [ [ [ [ [ [ [ [ g o 4 *.e.7.<.<.O.Q D H Q %.t.t.t.t.<.( J K L L B &     & N P L I J J J J L N $ , g [ [ [ [ [ [ [ [ [ [ [ ",
"[ [ [ [ [ [ [ [ [ [ [ f o 4 *.8.X./ / Q U J J U u.u.t.t.t.<.( D K P P N &     % N P L L J J J L P M $ , f [ [ [ ] [ [ [ ] [ [ [ ",
"[ [ [ [ [ [ [ [ [ [ [ f > j =.,.( D D D J J J D u.u.q.t.t.6.) A B N N n 6 % % 6 n B N V H L J L L N $ , g [ [ [ [ [ [ [ [ [ [ [ ",
"[ [ [ [ [ [ [ [ ] [ [ f o j -.5.( F D D J J J J D U u.u.t.e.u.u.5 & & 6 n B B n 6 % % 9 V P L L L N % o g [ [ [ [ [ [ [ [ [ [ [ ",
"[ [ ] [ [ [ [ [ [ [ [ f o 3 ..@.! D J J J J J J J J u.u.e.9.u.u.      % B P P N %     + c V H P P N % , f [ [ [ [ [ [ [ [ [ [ [ ",
"[ [ [ [ [ [ [ ] [ [ [ f > = R ~ Y J J J J J J J J J D Y u.u.O         % N P P N %     . + 9 V P P B $ o g [ [ [ [ [ [ [ [ [ [ [ ",
"[ [ [ [ [ [ [ [ [ [ [ ' e * x V H L J J J J J J J J J L u.u..     . + 9 V L L V 9 + .     + x B B v : e h [ [ [ [ [ [ [ [ [ [ [ ",
"[ [ [ [ [ [ [ [ [ [ [ ] ' y * 7 V L L J J J J J J J J L L m +     + v V H J J H V c +     . # = $ : y h [ [ [ [ [ [ [ [ [ [ [ ] ",
"[ [ [ [ ] [ [ [ [ [ [ [ [ ' e * v V H L J J J J J J J L J V 9 % % 9 V L L J J L L Z 9 + .       X e ' [ [ [ [ [ [ [ [ ] [ [ [ [ ",
"[ [ [ [ [ [ [ [ [ [ [ [ [ [ ' t ; 7 Z L L J J J J J J J J H V N N V H L J J J L L H V v @     X r ' [ [ [ [ [ [ [ [ [ [ [ [ [ [ ",
"] [ [ [ [ [ [ [ [ [ [ [ [ [ [ ' w ; v V H L J J J J J J J J J L I L J J J J J J J L P B & . X e h [ [ [ [ [ [ [ [ [ [ [ [ [ [ [ ",
"[ [ ] [ [ [ [ [ [ [ [ [ [ [ [ ] ' a ; 6 V L L J J I J J J J L L L J J J J J J J J L P N & X r ] ] [ [ [ [ [ [ [ [ [ [ [ ] [ [ [ ",
"[ [ [ [ [ ] [ [ [ [ ] [ [ [ [ [ [ ' w ; v V H L J J J J J J J J J J J J J J J L L H V v : e ' [ [ [ [ [ [ ] [ [ [ ] [ [ [ [ [ [ ",
"[ [ [ [ [ [ [ [ [ [ [ [ [ [ [ [ [ [ ' t ; 7 V L J J J J J J J J J J J J J J J L P V 7 ; t ' ] [ [ [ [ [ [ [ [ [ [ [ [ [ [ [ [ [ ",
"[ [ [ [ [ [ [ [ [ [ [ [ [ [ [ [ [ [ [ ' w ; v V H L L L L J J J L J L J L L L H V v ; w h [ [ [ [ [ [ [ [ [ [ [ [ [ [ [ ] [ [ [ ",
"[ [ [ ] ] [ [ [ [ [ [ [ [ [ [ [ [ [ [ ] ' t 2 8 V P L L I L L L L L L L L L L V 9 : t ' ] [ [ [ [ [ [ [ [ [ [ [ [ [ [ [ [ [ [ [ ",
"[ [ [ [ [ [ [ [ [ [ [ [ [ [ [ [ [ [ [ [ [ ' w 2 v N N N N N N N N N N N N N N b : e h [ [ [ [ [ [ [ [ [ ] [ [ [ ] [ [ [ [ [ [ [ ",
"[ [ [ [ [ [ [ [ ] [ [ [ ] [ [ [ [ [ [ [ [ [ ' y : & & & & & & & % % & & % & & 2 y h ] [ [ [ [ [ [ [ [ [ [ [ [ [ [ [ [ [ [ ] [ [ ",
"[ [ [ [ [ [ [ [ [ [ [ [ [ [ [ [ [ [ [ [ [ [ [ f ,                             , h [ [ [ [ [ [ [ [ [ ] [ [ [ [ [ [ [ [ [ [ [ [ [ "
};
