/* XPM */
static char *xpm_[] = {
/* columns rows colors chars-per-pixel */
"64 64 182 2 ",
"   c #0E1D2C",
".  c #0D1F30",
"X  c #0C2234",
"o  c #0B263A",
"O  c #0B283E",
"+  c #0A2C44",
"@  c #0B2F48",
"#  c #0B314C",
"$  c #0B3552",
"%  c #0D3856",
"&  c #0C3C5B",
"*  c #123D5C",
"=  c #0D3F61",
"-  c #0C4164",
";  c #0C466B",
":  c #0D486F",
">  c #124264",
",  c #124568",
"<  c #144A6F",
"1  c #0E4A72",
"2  c #114D76",
"3  c #184E73",
"4  c #114F78",
"5  c #13527C",
"6  c #18547D",
"7  c #479742",
"8  c #479843",
"9  c #489845",
"0  c #47974D",
"q  c #47984E",
"w  c #489848",
"e  c #479750",
"r  c #479850",
"t  c #499950",
"y  c #45965E",
"u  c #47985E",
"i  c #4C9A5E",
"p  c #449665",
"a  c #479860",
"s  c #4C9A65",
"d  c #449668",
"f  c #479869",
"g  c #4A9A69",
"h  c #165682",
"j  c #175985",
"k  c #185986",
"l  c #175B88",
"z  c #1A5D8A",
"x  c #1C608E",
"c  c #1D6393",
"v  c #1F6798",
"b  c #1F689A",
"n  c #21628E",
"m  c #226593",
"M  c #266995",
"N  c #206798",
"B  c #216A9C",
"V  c #2A6D9A",
"C  c #2D719D",
"Z  c #30739F",
"A  c #236EA1",
"S  c #2471A5",
"D  c #2A72A3",
"F  c #2675AA",
"G  c #2976AA",
"H  c #2778AE",
"J  c #2A78AE",
"K  c #3376A2",
"L  c #3679A4",
"P  c #3A7DA7",
"I  c #377DAB",
"U  c #397DA9",
"Y  c #2A7CB4",
"T  c #2C7FB8",
"R  c #317FB4",
"E  c #3F9482",
"W  c #3C9293",
"Q  c #3D81AC",
"!  c #3790AD",
"~  c #3991AC",
"^  c #2D82BC",
"/  c #3381B7",
"(  c #3983B3",
")  c #3485BC",
"_  c #3986BB",
"`  c #3B88BD",
"'  c #3A91B5",
"]  c #3C93B8",
"[  c #429682",
"{  c #479882",
"}  c #4C9B81",
"|  c #519E83",
" . c #419594",
".. c #539F95",
"X. c #56A095",
"o. c #4183AF",
"O. c #4095AE",
"+. c #4698AF",
"@. c #4999AD",
"#. c #539FAE",
"$. c #4185B1",
"%. c #468BB5",
"&. c #488CB6",
"*. c #448CBA",
"=. c #498FBA",
"-. c #4396B3",
";. c #4A97B2",
":. c #4798B7",
">. c #4D9BB5",
",. c #4393BB",
"<. c #4C92BC",
"1. c #4498B8",
"2. c #529EB4",
"3. c #5195BF",
"4. c #549FB9",
"5. c #5AA2AF",
"6. c #56A0B2",
"7. c #5AA2B1",
"8. c #57A1BA",
"9. c #5AA2BA",
"0. c #2F86C1",
"q. c #3187C2",
"w. c #338AC5",
"e. c #3D8DC3",
"r. c #358ECB",
"t. c #3E8FC9",
"y. c #3F90C6",
"u. c #3690CE",
"i. c #3C93CC",
"p. c #348FD1",
"a. c #3791D3",
"s. c #3C93D1",
"d. c #418EC3",
"f. c #4593C4",
"g. c #4B94C3",
"h. c #4699C7",
"j. c #4C9AC6",
"k. c #4395CC",
"l. c #4A97CC",
"z. c #4996CA",
"x. c #4598CE",
"c. c #4D99CA",
"v. c #4D98CA",
"b. c #4E99CA",
"n. c #4F9ACB",
"m. c #4C9CCA",
"M. c #4B98CC",
"N. c #4E99CD",
"B. c #4B9ACE",
"V. c #5196C0",
"C. c #5499C3",
"Z. c #539AC6",
"A. c #559CC6",
"S. c #589EC7",
"D. c #519EC9",
"F. c #519DCE",
"G. c #549ECB",
"H. c #589ECF",
"J. c #599FCA",
"K. c #4195D1",
"L. c #4396D1",
"P. c #4599D0",
"I. c #499AD2",
"U. c #4F9DD3",
"Y. c #4B9BD1",
"T. c #529FD2",
"R. c #539ED1",
"E. c #55A0C7",
"W. c #56A0CE",
"Q. c #5BA3CF",
"!. c #5BA2CD",
"~. c #56A0D3",
"^. c #56A1D1",
"/. c #58A2D1",
"(. c #59A3D0",
"). c #59A2D3",
"_. c #5AA3D2",
"`. c #5CA3D1",
"'. c #59A2D4",
"]. c #5BA3D2",
"[. c #61A6CF",
"{. c #61A6D2",
/* pixels */
"w w w w w w w w w w w w w w w w w w w w 8 8 w g 2.H.'.'././././././././././.!.`.'.6.s 8 8 8 w w w w w w w w w w w w w w w w w 8 ",
"w w w w w w w w w w w w w w w w w w 7 q i s g g 2.N.N.Z.v.N.v.v.v.F.v.v.v.N.F.^.T.>.} s g i q w 8 w w w w w w w w w w w w w w w ",
"w w w w w w 9 9 w w w w w w w w w 7 7 i ..5.5.2.*.e.e.) _ _ _ ` ` *._ ) _ w.u.k.K.h.>.2.#...i 7 8 9 w w w w w w w w w w w w w w ",
"w w w w w w 9 w w w 9 w w 9 9 0 u f f } 4.H.H.g.( G F F F F F F G G J F F H ^ w.w.t.d.N.N.>.} f s i 0 8 w w w w w w w w w w w w ",
"w w w w w w w w w w w w w 9 8 u  .+.@.;.<.=.=.Q D m c c z c c z c x c c c v S Y T T R / _ *.;.;.2...i 9 w w w w 8 w w w w w w w ",
"w w w w w w w w w w w 7 9 0 y [ ,.I.U.v.*.U L C m k k j h h h k h h h h h l c B A A A A J ) d.I.T.4.} i w w 8 w w w w w w w w w ",
"w w w w w w w w w w w 7 8 y W ] g.F.`.Z.U V m z k j j h 4 4 4 4 4 5 5 4 5 5 j z z z z z B Y w.s.I.G.8.X.i 8 8 8 w w w w w w w w ",
"w w w w w w w w w 0 y f f { ] K.z.g.C.=.K M k j k h h 6 4 1 4 2 2 2 1 4 1 4 h h h h h k c A T w.f.l.~.8.| s g s 0 w w w w w w w ",
"w w w w w w w w w y W ' O.:.m.N.=.%.U K M z k h h 5 4 1 1 1 : 1 1 1 2 1 1 2 4 4 4 5 h j x c A F / e.h.G.8.7.7.X.i 9 9 w w 9 w w ",
"w w w w w w 8 w 7 d ! a.s.Y.^.Z.&.P V m z k j h 4 1 1 : : 1 : 1 2 2 6 j j h 6 5 5 5 h j l z x A G / e.h.U.'.'.7.s 8 9 9 w w w w ",
"w w w w w w w 7 7 d ] s.K.B.G.<.o.Z n k k k k h 4 : 1 : : : 1 4 5 j c A G D z h 5 h h j k k j x A J ) u.x.~.`.7.s 9 9 9 w w w w ",
"w w w w w q a f f f ,.L.x.g.<.$.K V z h j j k 6 4 : 1 1 1 4 5 h l c A Y / R D v c x z l l j h l v A H ^ e.B.B.8.| s s s t 9 w w ",
"w w w 7 w y W ! ~ -.D.G.g.$.K V M x j j j h 6 5 1 1 1 5 h j k c v A G Y T T T T Y F b c c z j j z c v B / ` k.j.9.7.7.X.s 9 w w ",
"w w w w 7 d ' a.s.P.^.J.3.Q M z z z j j h 5 5 2 1 1 1 h k z c z z c N B A G T ^ 0.^ H S A c z j j l z m J ) t.s.^.{.{.7.s 9 9 w ",
"w w w w w d ! p.s.K.R.!.3.P m j j k j h 5 2 1 1 : 1 4 h z c k 2 > * , < 4 k B J Y T 0.^ H S z h j l l v F ^ u.L.^.`.{.7.s 9 9 w ",
"w w w 8 w d ! p.s.P.Q.!.3.o.m j j j j h 5 1 1 : : 1 2 5 h 6 < = # @ $ $ % , k c A F 0.r.0.H v z x l l c F ) u.P.^.`.{.7.s 9 9 w ",
"w w w w 7 f ! r.s.B.^.J.V.o.M h k h k h 4 2 : : : : : = = & # # + + @ @ # % ; 4 l B T r.0.T H b c x x c J ^ t.L.^./.`.7.s 8 w w ",
"w w w w 8 f ~ i.k.z.j.g.&.L m j z z c z h 4 1 : 1 : = = @ + + + + + + + + # & ; 4 l F T 0.0.T H B N x x S Y 0.y.h.W.Q.9.| i w 8 ",
"w w w w 7 f #.Y.B.f.%.P K V z k m A S A x 4 1 : 1 : = = # + + + + + + + + # & ; 1 j c B S Y 0.0.J B x l m S G R e.z.N.D.9.X.i 8 ",
"w w 8 w y } 4./.F.=.L V m n k n B J T J c h 1 : 1 : : = # + + + + + + + + # & ; 1 4 h l b F 0.p.Y B x l z v m S ) d.k.T.{.9.| s ",
"w w 7 y W ,.G.`.S.&.C x x z l x A H 0.Y v h 1 : 1 : = = @ + + + + + + O + $ & ; 1 1 1 5 c S 0.0.Y S x j k z x B ^ y.i.B.`.[.9.5.",
"w 0 y [ ' K.R.!.E.%.V z l x v B S H H S x h 1 : 1 1 = = # + + + + O O O + $ & - : : : 4 l b ^ 0.H b z h j j k m Y w.i.I./.{.{.{.",
"w y W ' u.s.T.Q.S.$.V x c B Y Y F b l l h 4 1 : = = = & # + O . X . o O + $ & = - ; : 1 h v Y T F v z j j j j B Y w.i.B.].{.{.{.",
"7 d ! p.u.k.T.Q.S.%.V x v F ) ) F c h 1 1 1 : ; = = $ $ + O O . . . X o + # $ % & = : 1 h c S F A v z h j k k B ^ w.i.B.Q.{.{.{.",
"7 d ! r.a.i.W.Q.E.%.V x v F q.w.F c 4 : 1 1 : = = # # + O o . .     . o o + + # $ & = 1 h l v b m x j k k l l N Y w.i.B./.`.[.{.",
"w f ! p.u.s.W.W.S.%.V z v F q.w.F c 4 : : 1 : = $ + + + o . . .     . . X o O + @ $ = 1 h l c v c x j k k 6 x N Y w.i.x./.`.[.{.",
"7 d ! r.u.i.W.Q.S.%.V z v F q.q.F l 4 : : : 1 = $ + + . .               . . O + @ $ = 1 h l b b m x l k k k x N Y w.i.B.(.{.`.{.",
"8 d ! p.a.i.F.!.S.%.V x v F q.0.F x 4 : : : 1 = $ + + .                   . o O @ % = 1 1 h c c c z l h h k l B ^ q.i.B.(.[.{.{.",
"8 f ~ p.r.K.T.!.S.%.V x v F q.w.F l 2 : : 1 : = $ + O o .                 . o O @ $ = : 1 1 4 5 j j j j k k x B / r.i.B.(.{.[.[.",
"7 f ! p.a.s.W.Q.S.%.C x v F q.w.H c h 1 : : : = $ + O o .                   o O + $ = : : : 1 1 5 h j j h k l v ^ w.i.B.].[.[.[.",
"7 d ! r.u.s.^.Q.S.%.C x v F q.w.H c h 1 1 : : = $ @ O .                   . o O @ $ = : 1 : 1 1 2 5 h j k k x v H w.i.B.`.[.[.[.",
"w f ! r.u.i.B.W.S.%.V x v F q.w.Y A l j 4 2 : = $ + O o .                 . o + + $ - : : 1 : 1 2 5 h j k k k v ^ w.i.B.(.[.`.[.",
"8 d ! a.a.i.B.G.G.&.V x b F q.r.w.^ Y b l 5 : - $ + O X                     X o @ $ - : : : 1 1 1 h h l j k z B T w.u.B.^.{.{.[.",
"8 d ! r.u.x.F.Q.A.*.V c b F 0.r.p.r.w.Y v 6 : - $ + O o .                   o O @ $ - : : 1 1 1 4 h h l j l z B Y w.r.x.^.{.{.{.",
"8 d ! u.u.x.W.!.S.&.V z c A Y 0.0.p.u.^ v 5 : - $ O O X . .               X o O + $ - : 4 4 h h h l l l l k k B Y w.r.P.W.{.[.{.",
"w a ~ a.u.x.^.!.S.&.V z x v S Y ^ ^ w.^ b l 5 : * % # O O X .           o o O + @ & - 1 4 l c c c l l h l k z v T w.u.I./.[.{.{.",
"7 d ! r.u.k.U.E.A.&.V z k z c v A S H F B v x l 5 < , * @ O X .     X o O + + # $ & - 1 j b H ^ S b l l l l z B Y w.i.B.Q.{.{.[.",
"8 d ! p.a.s.B.W.A.&.V z k j j k x c v v b v v v v c x < % O o X .   o O + + # $ & - ; 1 l S 0.w.H A l j j j z v ^ r.i.B./.{.{.`.",
"7 d ! p.s.s.R.!.S.&.V z j k j k h 6 5 h x v b F Y / C z = O o o X X o O + # & - ; ; : 1 l S 0.w.Y A l j h j z v Y w.i.B./.{.{.{.",
"w y W ' ~ :.S.!.J.&.V z j k j k 5 4 1 2 h l v b Y / D x & + O O o o O + @ # - - : : : 4 l S 0.0.Y A l l j j z B / r.i.B.`.{.{.{.",
"w 0 y d a } 4.`.S.=.C x l j j j h 5 4 2 2 5 5 j v v x 4 % @ + O O + O + @ $ & ; ; : : 2 l A 0.0.Y B z j k l n B Y r.k.B.`.{.{.{.",
"w w w 8 7 s #.R.Z.=.I V N c k h j h h 4 4 : : 1 6 6 4 ; $ + + + + + + + + $ = ; : 4 5 x c S ^ ^ S B z j z m B G ) y.h.j.9.5.5.5.",
"w w w 7 w f @.B.z.g.=.%.Q C x h h h h 5 5 1 1 1 1 1 ; - $ + + + + + + + @ $ - 1 5 x b F F S S b m x z z B F Y ) k.B.U.>.| s s s ",
"w w w w 7 f O.i.y.f.S.C.<.U m k l l l h 5 1 1 : 1 : - & # O + + + + + @ @ % < h x B H ^ Y S v x z z l x S Y ) u.B.W.^.#.s 8 w w ",
"w w w 9 w f ~ r.i.x.W.!.<.Q m l l l l 5 4 1 1 1 1 : - = # + + + + + + # # * h v A H ^ ^ F b x l k z l c F ^ r.k.].{.{.5.s w 8 9 ",
"w w w 9 7 f ! p.u.x./.!.3.Q m l j l l h 5 1 2 1 1 1 ; - * * $ @ + + # # % - h v A A F S B v l h k l j c H ) u.x.Q.{.{.7.s 9 9 w ",
"w w w 9 9 d ! p.u.x.Q.!.3.Q n j h l j h 5 4 2 1 1 1 1 1 6 6 3 * # + # & - ; 2 5 j l x x x l l j j j j c F ^ u.x.W.`.{.7.s w 9 w ",
"w w w w 9 a W ` u.L.^.!.3.$.V x l l l h h 6 5 2 2 1 1 h c m k 3 & $ - : 2 2 1 2 1 5 5 j h h h l j l l v J ) u.P./.!.9.X.s w 9 w ",
"w w w w w q y E ] s.B.h.g.*.U Z M n k j k h h 6 4 2 4 h v v m z 6 6 j k c z 4 2 2 4 h h h j j l z m B G / y.k.Y.'.9.| i w w w w ",
"w w w w w 9 9 y  .] i.k.B.g.=.o.K M z j j k j h 4 2 4 6 z v x x z c c v B c h 4 2 4 h j j j j l m A J / d.z.B.E.9...i 8 w w w w ",
"w w w w w 9 9 q u [ ' s.x.v.G.3.o.Z x j j k j h 5 1 1 1 1 5 h j c c v v c c h 2 2 4 h h k h j x B Y q.t.N.R./.9.| i 0 w w w w w ",
"w w w 9 w w w 9 8 u W ' k.I.R.A.*.U V m n k j h 5 1 1 1 1 1 1 h k z z z z j h 4 4 4 h k z z c v G ) y.P.^.!.9.X.i 8 w w w w w w ",
"w w w w 9 w w 9 w 0 y [ ] s.P.k.d.*.$.P V n j h 5 5 1 4 1 1 1 4 6 h 4 4 4 4 2 4 4 4 h l x v F Y / d.B.T.'.9.| i w 8 w w w w w w ",
"w w w w w w w w w w 7 y  .] u.i.k.g.Z.=.L M z j h 5 5 5 4 4 4 4 4 1 1 1 1 2 4 h h h h x v S T q.e.B.^.Q.9...i 8 9 w w w w w w w ",
"w w w w w w w w w w w q f d ' s.P.N.G.V.P Z m x l j h 6 5 5 5 h 4 4 4 5 4 h k k z z z c A F q.i.B.T.`.9.| i w w w w w 8 w w w w ",
"w w w w w w w w w w w w w y  .' +.>.G.N.*.U L B m x z l j j l l k j l l z x m B A A B D I / i.h.>.2.7.X.s 8 w w w w w w w w w w ",
"w w w w w w w w w w w 8 w w y f f { 1.K.k.f.=.( D v v c c c c c z m m c N A F Y ^ ) _ ` e.k.T.4.| s s s 0 8 w w w w w w w w w w ",
"w w w w w w w w w w w w w w w 7 8 y W O.@.>.g.d.R J F D F G F G D S F J G R ) w.r.K.l.g.;.@.7...i 9 9 9 9 w w w w w w w w w w w ",
"w w w 8 w w w w w w w w w w w w 7 q a f s { ] i.t.e.e.e.e.e.e.e.d.e.d.e.e.t.d.K.P.Y.R.9.} s s i q 8 9 9 9 w w w w w w w w w w w ",
"w w w w w w w w w w w w w w w w w w w 8 w y  .O.-.@.+.@.+.@.@.@.@.@.@.@.@.@.+.@.@.@.7.X.s 8 8 w w 9 w w w w w w w w w w w w w w ",
"w w w w w w w w w w w w w w w w w w 9 9 9 q a d g f g f g g f f f s g s f f f f g s g s 0 8 w w w w w w w w 8 w w w w w w w w w ",
"w w w w w w w w w w w w w w w w w w w w w w 9 9 w 7 9 9 8 8 w 7 w w w w w w 7 7 9 9 w w 9 w w w w w w w w w w w w w w w w w w w ",
"w w w w w w w w w w w w w w w w w 9 w w w w w 9 9 9 9 9 7 w w w w 7 9 w 9 8 w w 9 9 9 9 9 w w w w w 9 w w w w w w w w w w w w w ",
"w w w w w w w w w w 7 w w w w w w w w w w w w w w w w 9 w w w w w w w w 9 w w w w w w w w w w w w w w w w w w w w w w w w w w w "
};
