/* XPM */
static char *xpm_[] = {
/* columns rows colors chars-per-pixel */
"64 64 215 2 ",
"   c #170E1B",
".  c #190F1D",
"X  c #1A111D",
"o  c #22141E",
"O  c #1F1421",
"+  c #1E1C21",
"@  c #221522",
"#  c #251925",
"$  c #2C1B24",
"%  c #261A29",
"&  c #2B1C2C",
"*  c #2A1624",
"=  c #311B26",
"-  c #341C2A",
";  c #3B1E2C",
":  c #391D26",
">  c #2F1F33",
",  c #361E30",
"<  c #222D25",
"1  c #2E202F",
"2  c #292827",
"3  c #312225",
"4  c #3B212E",
"5  c #35262D",
"6  c #233126",
"7  c #263429",
"8  c #2C3229",
"9  c #332335",
"0  c #362933",
"q  c #3B2C36",
"w  c #352539",
"e  c #3B2A3C",
"r  c #3A2639",
"t  c #3E3139",
"y  c #3C3F38",
"u  c #3A3E37",
"i  c #3C3028",
"p  c #48292E",
"a  c #4A332D",
"s  c #442533",
"d  c #4B2634",
"f  c #4C2933",
"g  c #492938",
"h  c #532B36",
"j  c #592D37",
"k  c #5B2E3B",
"l  c #552E3C",
"z  c #42343C",
"x  c #45393F",
"c  c #553432",
"v  c #5B3435",
"b  c #5C323C",
"n  c #593834",
"m  c #51342E",
"M  c #64333E",
"N  c #6A353E",
"B  c #653B3B",
"V  c #6A3D3C",
"C  c #733B3E",
"Z  c #783D3F",
"A  c #2D4B2F",
"S  c #3C4139",
"D  c #3A633A",
"F  c #3B763C",
"G  c #3D7A3E",
"H  c #5D4333",
"J  c #674439",
"K  c #75483C",
"L  c #79543D",
"P  c #3D2B40",
"I  c #412D44",
"U  c #442F48",
"Y  c #532F41",
"T  c #463B41",
"R  c #46324A",
"E  c #4A344D",
"W  c #493247",
"Q  c #543342",
"!  c #5B3443",
"~  c #5B3944",
"^  c #53394D",
"/  c #543949",
"(  c #4D3751",
")  c #4E3852",
"_  c #533B53",
"`  c #563D5A",
"'  c #593F5C",
"]  c #5A3D55",
"[  c #633643",
"{  c #6C3641",
"}  c #643A45",
"|  c #6C3A42",
" . c #613F4F",
".. c #683F48",
"X. c #743C42",
"o. c #7A3D43",
"O. c #623F50",
"+. c #3F7F40",
"@. c #5B434C",
"#. c #5A484E",
"$. c #5B405E",
"%. c #5D4854",
"&. c #62404F",
"*. c #6D414D",
"=. c #754143",
"-. c #7C4243",
";. c #72414B",
":. c #7C494D",
">. c #7A4748",
",. c #654251",
"<. c #654B54",
"1. c #6A4A56",
"2. c #62455E",
"3. c #6B4B58",
"4. c #6B4654",
"5. c #764B53",
"6. c #6C535B",
"7. c #6B585A",
"8. c #7C5459",
"9. c #76545B",
"0. c #6F615F",
"q. c #5E4360",
"w. c #624661",
"e. c #654863",
"r. c #694C64",
"t. c #6D5168",
"y. c #6D5264",
"u. c #745B61",
"i. c #7C5B63",
"p. c #745A6E",
"a. c #7C5D6C",
"s. c #735569",
"d. c #795F70",
"f. c #7E6267",
"g. c #796366",
"h. c #7C6171",
"j. c #6D6060",
"k. c #805A3E",
"l. c #834345",
"z. c #8B4646",
"x. c #854B44",
"c. c #8D4946",
"v. c #834648",
"b. c #834B4D",
"n. c #8A4D4D",
"m. c #894748",
"M. c #924B47",
"N. c #944B48",
"B. c #8B5345",
"V. c #88564A",
"C. c #935346",
"Z. c #95534A",
"A. c #955B48",
"S. c #8C5253",
"D. c #8C595A",
"F. c #86575A",
"G. c #925352",
"H. c #935959",
"J. c #9B5C59",
"K. c #946249",
"L. c #9B6549",
"P. c #9C684A",
"I. c #855D62",
"U. c #895F63",
"Y. c #815F69",
"T. c #8B6164",
"R. c #846D6E",
"E. c #8A6A6F",
"W. c #86646B",
"Q. c #856572",
"!. c #8B6D73",
"~. c #886C76",
"^. c #8C7274",
"/. c #8D727B",
"(. c #897574",
"). c #927476",
"_. c #93757A",
"`. c #947A7C",
"'. c #9A7C7C",
"]. c #987676",
"[. c #916C6E",
"{. c #A17C79",
"}. c #408241",
"|. c #499A49",
" X c #469146",
".X c #9B807E",
"XX c #95827F",
"oX c #A6827D",
"OX c #AB847E",
"+X c #967C81",
"@X c #9D8282",
"#X c #9B8885",
"$X c #9F9088",
"%X c #A28685",
"&X c #A58A87",
"*X c #A48B8A",
"=X c #A98E8A",
"-X c #A58684",
";X c #A19289",
":X c #AC928D",
">X c #B1958F",
",X c #A68F90",
"<X c #A69090",
"1X c #AC9491",
"2X c #B19791",
"3X c #B39992",
"4X c #B69E99",
"5X c #BBA59D",
"6X c #BEAAA1",
"7X c #C2AEA4",
"8X c #C4B1A6",
"9X c #C3B0A4",
"0X c #CEBCAE",
"qX c #CDBAAD",
"wX c #CAB7AA",
/* pixels */
"|.|.|.|. X|.|. X|.|.|.|.|.|.|.+.7     X     . .   +           +                 .           .     6 G |.|.|.|.|.|.|.|.|.|.|.|.|.",
"|. X|. X|.|.|.|.|. X+.F F F +.D S P y P H P T S P T T T #.S S P #.P @.S P S y @.T T T T T x x t t S D G F F F }. X|.|.|.|. X X|.",
"|.|.|.|.|.|.|.|.|.+.A 6 6 6 6 S j.(.+X#X#X$X$X;X;X$X$X;X;X;X;X$X$X$X$X$X$X$X$X$X;X;X$X*X$X$XXXXX(.j.S 6 6 6 6 A }.|.|.|.|.|.|.|.",
"|.|. X|.|. X+.F F D S q z q z #.#X4X6X6X6X6XwX0X0X0X0X0X0X0X0X0X0X0X0X0X0X0X0X0XqXqXqXqXqXwX9X5X5XXX%.t z q q S D F G }. X|.|.|.",
" X|.|.|.|.}.A < < u 7.(.E.(.^..X1X6X6X6X6X6X6X6X6X6X6XwX6XwX6XwX8X8X8X8X6XwX6XwX8X8X8X8X7X7X6X6X5X3X#X+X(.~.R.7.u < < A +.|.|.|.",
"|. X}.F F D S q q #.`.:X>X>X>X>X<X<X<X<X,X,X,X,X<X1X<X<X<X<X<X<X<X<X<X<X<X<X<X<X<X,X,X,X,X,X,X,X<X3X4X4X3X1X:X`.#.q q y D F G F ",
"|.}.A < 6 S 0.^.(.`.=X2X1X:X*X#X+X+X~.h.p.p.p.p.d.d.d.h.h.h.h.h.h.h.h.h.h.h.h.h.d.d.d.d.h.d.d.h.~.+X#X#X<X1X:X%X_.(.(.j.u 6 7 8 ",
"G D S q q #.'.3X3X:X=X&X%X+X/.Q.h.p.t.q.' ` ` ` q.q.q.q.q.q.e.q.q.q.e.q.q.q.q.q.w.w.w.2.w.w.q.e.t.p.h.+X+X@X@X%X:X2X2X`.#.9 @ . ",
"6 S 7.R.!.].&X2X=X-X`./.Q.p.t.r.e.e.q.$.` ` ` ` ` ' ' ' ' ' ' ' $.$.$.$.' ' ' ' ' ' ' ' ' ' q.q.q.q.e.t.p.p.Q./.%X=X2X=X'.7.0 . ",
"  q R.:X>X:X&X+X`.!.h.s.r.e.$.` ( ( E R U U U U R R E E R R R R E R R R R R R R E R R E R R E ( ' ' ' $.q.e.t.d.~.'.-X>X2X^.t . ",
"  t (.:X=X-X+XQ.a.y.r.w.q.q.q.( w & & % & & & & & & & & & & & & & & 2 & & & & & & & & & & & & w ) $.$.$.' ' q.e.s.a./.+X:X(.t . ",
"  q W.+X'./.d.s.e.$.' ' q.` ) P % O O @ O . O O @ @ @ @ @ @ O @ O O @ O @ @ @ @ O O O O O O O & P ) ' ' ' ' ' ' q.r.p./.@XR.q   ",
"X 0 6.~.d.t.r.w.q.$.$.` ` ( w % * * - = @ @ * = - ; - ; - - - = & & - - - , - - = * o @ * - * % & w ( ` ' q.' ' q.q.e.t.Q.y.9 X ",
"X 1 %.s.r.q.$.$.$.$.' ` E e % @ - s g d ; ; 4 d g h h h h h d s s s d h h d h h d ; = - d d s ; % % r ( ) q.q.' ` ` $.q.t.%.1 . ",
"X > ] e.q.$.$.$.$.' ` ( w % * ; h M X.{ k h k [ X.o.o.o.o.C { b j k C o.o.o.X.{ { k d h { X.N h ; & % w R ` q.' q.` ' q.r._ 1 X ",
"X - _ w.$.' $.$.` ` E e % * ; g M o.z.l.{ { { o.l.z.z.z.m.m.o.X.N { l.z.z.z.l.l.o.{ [ [ o.z.l.{ h ; * % P E ) ' ' q.' 2.2._ 1 X ",
"X & _ w.$.$.$.$.` ( w % % ; h [ -.l.z.l.| } X.>.l.c.z.z.z.l.o.| ..| l.M.z.z.l.z.v.;.| | v.n.n.>.{ k ; = % w E ` q.q.$.q.w._ & X ",
"X & _ %.$.` ` ` ) U % # z @.3.8.D.G.G.S.5.8.F.D.H.H.G.H.H.D.F.F.5.b.G.J.G.H.H.J.H.D.8.5.F.H.D.S.b.*.! r # % P ) ) ` ` ` 2.^ & X ",
"X & E $._ ) E E R w @ q u.'.'.'.{.{.].].)._.'.'.oXoXoXoX{.{.{.'.'.oXOXOXOX{.OXOX-X'._.!.[.[.[.W.Q.W.a.<.1 % e R ( ( ( _ $.Q & X ",
"X & Q ] ^ E E E P w O t _.3X1X:X=X&X&X-X-X&X:X2X2X2X2X2X2X=X=X*X:X2X3X3X3X3X3X3X>X=X-X+X_._./.!./././.u.0 O w P R ( E ) _ E & X ",
"O & / ' _ ( ( ( U w @ t /.3X1X=X=X=X&X&X=X:X2X2X2X2X>X:X=X&X%X#X=X:X3X3X3X3X3X>X>X:X&X'._.!.Q.Q.!././.u.q O w R ( ) ( ] ] E & X ",
"X - ^ 2.' ` ` _ E e # q R.=X*X%X@X.X%X-X-X&X&X=X&X=X-X-X%X+X+X'.%X-X&X&X&X=X&X&X&X-X%X'./.!.Q.Q.~././.9.0 % w E ) _ ` ` $.^ & X ",
". & _ w.q.` ` ` E e # 0 u.]._.).).[.).[.).).).).).).).).[.!.[./.).).).).).).).).).).[.!.!.!.W.!.E.!.!.6.0 % e E ) ` ` $.w._ 1 X ",
"X 1 _ e.q.$.$.` _ P # 1 <.Y.i.i.i.i.i.i.i.i.i.i.i.i.i.i.i.i.i.i.i.i.i.i.i.i.i.i.i.i.i.i.i.i.i.i.i.i.Y.<.1 # e E ( ` ` w.w._ 1 X ",
"X 1 _ e.q.$.$.` ( P % & W O.,.O.&.,. . .O.O.O.O.O.O.O.O.O.,.O.O. . .O.O.O.O.,.O.O. .&.O.O. .O.O. .,.,.Q % % e E ( ) ` ' w._ 1 X ",
"X 1 _ e.q.$.$.` ( P % # s Y ! ! ! } } [ ! Q Q ! [ [ } } } [ Q ! ! ! [ } } [ [ ! ! ! Q ! [ } } [ ! ! Q g % % e R ) _ ` q.w._ 1 X ",
"X 1 _ e.q.$.$.$.) P % @ , d ! | X.-.v.o.M l b | o.m.m.m.m.o.{ b k [ o.l.v.v.=.X.{ { b [ o.m.m.l.-.| b d * % P E ` ` ` ' e._ 1 X ",
"X 1 _ e.$.$.$.` ) e % @ - d M X.l.m.N.l.N k N o.z.N.N.N.N.m.| M N C c.N.N.c.v.-.X.X.[ | m.N.N.N.x.o.M d % % P E ` ` ` ` 2._ 1 X ",
"X 1 _ e.2.$.$.` ) P % @ - g N -.m.c.M.l.X.{ X.l.N.N.N.N.N.c.o.{ { o.c.N.N.c.x.-.-.X.| X.z.N.N.N.M.l.X.h = % I ( ` $.$.q.e.^ 1 X ",
"X 1 _ e.q.$.$.` ) P % @ ; h X.m.c.M.M.l.o.X.l.z.N.N.N.N.N.c.o.X.X.o.c.N.N.z.c.x.l.o.| o.z.N.N.N.N.c.o.j : & P ( ` $.$.q.e._ 1 X ",
"X 1 ^ e.q.$.$.` ) P % @ - h o.N.N.N.M.z.o.X.x.B.M.N.N.N.N.c.o.o.o.l.c.N.N.N.N.c.z.o.o.o.z.N.N.N.N.z.X.k - % P ( ` $.$.q.r.^ 1 X ",
"X 1 ^ e.q.$.$.` ) t % @ - h o.m.m.c.M.m.o.o.B.C.M.M.N.N.N.N.l.o.o.o.m.N.N.N.N.N.z.l.o.o.N.N.N.N.N.z.X.h - % e ( ` $.$.$.e._ 1 X ",
". & ^ e.' ' ' ' ( P % @ - d { X.o.l.c.c.o.k.k.C.N.N.N.N.N.z.o.o.o.l.M.N.N.N.N.N.M.M.z.z.M.M.N.N.N.v.{ d = * P ( ` $.' q.q.^ & . ",
"O - ^ ' ' ` ' ) R P % @ , d M o.o.o.z.c.l.x.A.A.N.N.N.N.N.z.l.o.o.o.N.N.G.G.G.G.J.J.J.J.G.Z.Z.G.D.:.M p * * P R ) ` ` ' q.^ , . ",
". & W ] ) ( ( U P w # @ - d o.c.c.c.c.c.z.z.K.L.Z.N.N.N.N.N.o.o.o.l.z.N.H.U.U.[.{.OXOX{.[.T.T.U.F.5.h : o O > U E E E ) ] E & . ",
". & W ` ( ( ( R U w * @ , k l.N.N.N.M.c.x.B.L.P.Z.N.N.N.N.l.C N X.o.z.Z.U.W.Y.E.&X3X3X&XE.Y.W.W.Y.5.l : @ O w U E E E ( ] W & . ",
". - _ $.` ` ` ) E P O @ 4 b -.N.N.N.N.c.x.B.L.P.Z.N.N.N.M.o.M j B C m.G.T.Y.3.9.oX3X3X#X9.6.f.W.I.4.[ s = % r E ) ` _ ` 2.^ - . ",
". 1 ^ e.$.' ` ` ( P % * 4 b l.N.N.N.M.c.z.B.L.P.Z.N.N.N.z.Z j d v K z.Z.U.y.@.6..X3X3X.X7.@.9.8.8.;.{ d = & I ( ` $.` $.w.^ & O ",
"X 1 _ e.q.$.$.` ) P % @ 4 b l.N.N.N.M.c.z.B.P.P.Z.N.N.N.c.o.h d v K x.n.5.@.~ 6..X3X3X.X<./ @.<.4...| l - & I ( ` $.$.q.e._ 1 X ",
"X 1 ^ e.$.` ' ` ) P % @ ; k l.M.N.N.M.c.x.M.A.L.N.N.N.N.M.o.k h V K z.x.} @.<.u.)..X.X^.g.<.@./ 4.O.| l = & r ( ` $.' 2.e._ 1 X ",
"X 1 ^ 2.$.) ` _ ( P % # 4 b K c.M.N.M.z.o.-.n.B.N.N.N.N.M.l.{ [ K z.M.z.} <.(.`.9.1.1.g.).(.<.@.4.O.{ j = & P ( ` $.$.$.e._ > . ",
"X 1 ] 2.` ^ ) ) E P % @ 4 h Z z.M.N.M.z.o.{ -.l.M.N.N.N.M.l.o.X.k.k.M.z.*.9.@X&Xg.7.1.f.&X%X8.*.o.o.{ j - & P ( ` $.$.q.e.` & X ",
"X 1 _ 2.` ) _ ) ( P % @ 3 h C z.c.M.M.z.X.{ { X.l.z.M.N.N.z.o.o.x.B.M.m.:.Y.-X:X&X.X.XoX>XOXH.-.b.o.X.h - & e ( ` $.$.q.e._ 1 X ",
"X 1 _ 2.$.` ` ` E P % o = f Z c.c.M.M.l.X.[ [ { o.l.z.N.N.z.l.l.x.B.M.c.n.F.).@X.X#X.XXX.X).S.m.m.b.X.j : & P ( ` $.' q.e._ 1 X ",
"X 1 _ e.$.$.$._ ( P % @ : p Z z.N.N.N.z.X.{ [ M X.o.l.z.N.c.-.-.V.K.C.M.m.:.5.6.7.7.6.6.6.3.=.-.m.z.X.k - $ e ) ` $.$.q.e.^ 1 X ",
"X 1 _ e.$.$.q.` ) P % @ = f Z z.N.N.z.l.X.{ { { { X.l.z.M.M.l.x.K.K.A.M.m.-...~ ~ ~ Q Q ~ } | -.M.n.o.j - & P ) ` $.$.q.e._ 1 X ",
"  1 _ r.q.$.$.` ( P * o = p Z z.z.N.z.l.o.o.o.o.o.o.l.z.M.M.z.c.K.P.K.C.z.-.=.X.| [ b l [ X.-.c.C.C.o.b - & P ( ` $.$.$.e._ 1 X ",
"X 1 _ q.q.$.$.` ^ e * o : p C l.z.z.l.l.o.l.l.l.l.l.z.z.M.z.m.z.K.L.A.C.l.-.o.K -.N k k V o.m.c.C.C.-.v - & P ( ` $.$.2.e._ 1 X ",
"X 1 ^ e.q.` q.' ( P % O % p N l.l.m.l.l.l.k.B.B.c.c.c.c.z.z.o.o.B.A.Z.z.o.X.o.-.l.o.M M X.l.l.z.N.c.=.v - & z ( ` $.$.$.e._ > . ",
"X 1 ^ 2.q.q.' ) E P % % r b X.v.b.b.b.b.v.m.A.G.V.S.S.n.n.b.:.:.V.V.G.n.:.;.:.b.b.b.X.*.:.b.b.n.N.S.:.b - % r ( ` $.$.' w.^ & . ",
"X & ^ $.$.` ` ) P w O 1 ,.8.Y.Y.I.I.I.U.U.U.T.T.T.U.U.U.U.U.I.Y.T.T.T.U.Y.I.I.I.U.I.F.i.T.T.T.I.T.T.I.<.0 @ w R ( ` ` ` $.Q & X ",
"X $ W ^ ` ) ) E P P O w u.).).).).).)._._._.).).)._.).)._.!.).)._.^.).).).).).)._._.).).R.E.E.!.^.).`.9.w O > P E ( ` ` _ W & X ",
"X % I ^ E E E R P > O e f.*X*X#X#X-X&X*X=X:X=X:X=X=X*X=X=X%X%X%X=X:X=X=X=X=X:X=X=X=X&X'.(.E.!./.@X%X*Xh.q O > P R E E R E I & X ",
"X & I _ ( E ( E P 9 O t (.1X1X1X<X1X2X2X2X3X2X2X2X3X3X2X3X1X1X1X2X2X2X2X2X2X2X2X2X:X=X%X/.!.!.).%X1X1XR.q O 9 I R ( ( E _ I & X ",
"X 1 ^ $.$.$._ ) ( P # t (.1X1X<X;X1X1X1X<X1X1X1X1X1X1X1X1X<X1X;X:X:X:X:X=X:X=X=X=X-X'._.).~.Q.!.*X1X1X(.t + w ( ) $.$.$.$.^ & X ",
"X 1 _ e.$.$.q.` ( P O q g.`.`.`.`.`.`.`._.`.`._.`.`.`.`.`.`.`.`.).).).^.)._._.).).[.Y.Y.Y.Y.i.a./.`.+Xg.0 % P ) $.$.q.$.e.^ 1 X ",
"X 1 _ e.q.' q.` ( P # 1 / 3.1.1.1.1.1.1.1.1.1.1.1.1.1.1.1.1.1.1.<.<.1.4.1.4.1.1.1.,.,.,.,.,.,.O.4.3.3.^ 1 % P ) $.$.$.q.q.) > X ",
"X 1 ` e.q.q.' ` ( P % & g ~ } [ [ [ ! ! Y Q ~ B ~ ! ~ ! ! [ Q Q ! ! ~ ! ! [ ! ! ! ! Q Q Q Q ! ! ! ! Q s # % P ) ` $.$.q.e.@.> X ",
"X & _ e.q.' ' ` ( P % # m J >.>.-.X.o.V k h B J K J V V V B M M V =.X.=.X.K X.| [ b h g b B B B [ k h 4 @ % P ) ` $.$.$.q.@.1   ",
"X 1 _ q.q.' q.` ) P % # a J k.k.z.o.k.C h a m n H n v c v v m j V K K -.-.>.-.-.=.v s 4 p h c v h d ; & @ % P ) ` $.$.$.q.) 1 X ",
"X 1 ) $.` ` ` ` ( P % o a J L L L K K B c p 3 $ = $ = $ 3 $ $ 4 m H K K L L L K J n i $ $ $ $ $ $ * @ @ O % P ( ` q.$.q.q.) > X ",
"X % I E R R R R P q # 2 5 a H H H m m m q 5 8 7 7 7 7 7 7 7 6 8 i a n H H H H n a p 1 2 2 7 7 7 7 7 7 2 + % > P P R P P ( P 2 X ",
"O O % & 2 % 1 & & % # X o 3 8 3 3 3 3 $ # 8 D +.G +.F F +.G G D 8 o 2 3 3 3 3 3 $ # + 2 D G +.+.F G +.D < O + + > & % 1 & % O O ",
"X O X X X X . X . . X X X X X X   X X X X 7 }.|.|.|.|.|.|.|.|.+.8 X . X X X . . . . O 7 +.|.|.|.|.|.|.F 7 . O O   O X   O   O O "
};
