/* XPM */
static char *xpm_[] = {
/* columns rows colors chars-per-pixel */
"64 64 253 2 ",
"   c #080C06",
".  c #091709",
"X  c #16150D",
"o  c #081918",
"O  c #191A13",
"+  c #110C07",
"@  c #24190E",
"#  c #261D14",
"$  c #09270C",
"%  c #0A350E",
"&  c #0C2912",
"*  c #182815",
"=  c #0B3C11",
"-  c #0D3511",
";  c #173717",
":  c #1B250E",
">  c #282718",
",  c #362719",
"<  c #273719",
"1  c #37341C",
"2  c #16322D",
"3  c #2A2B25",
"4  c #263925",
"5  c #393629",
"6  c #383A34",
"7  c #343028",
"8  c #081B24",
"9  c #482A1A",
"0  c #45391A",
"q  c #59321D",
"w  c #4D3417",
"e  c #62371F",
"r  c #483826",
"t  c #513828",
"y  c #643920",
"u  c #0C4312",
"i  c #0C4B14",
"p  c #0E4B18",
"a  c #164818",
"s  c #0D5B1A",
"d  c #0C5317",
"f  c #135C1A",
"g  c #175818",
"h  c #0C420F",
"j  c #27491D",
"k  c #29531D",
"l  c #0E631D",
"z  c #0C681F",
"x  c #1A631B",
"c  c #19671C",
"v  c #246C1C",
"b  c #29751D",
"n  c #376E1C",
"m  c #1C5324",
"M  c #2A4825",
"N  c #354529",
"B  c #275726",
"V  c #39483A",
"C  c #355832",
"Z  c #0E6C21",
"A  c #166A23",
"S  c #0F7325",
"D  c #0F7827",
"F  c #117B29",
"G  c #157626",
"H  c #256A28",
"J  c #297A23",
"K  c #376F31",
"L  c #4F4D14",
"P  c #507719",
"I  c #787108",
"U  c #564428",
"Y  c #45453B",
"T  c #564737",
"R  c #4F5630",
"E  c #6D5330",
"W  c #47682A",
"Q  c #4F702D",
"!  c #716931",
"~  c #6C591D",
"^  c #113844",
"/  c #375043",
"(  c #205F66",
")  c #4A4B45",
"_  c #544E45",
"`  c #495647",
"'  c #595549",
"]  c #595A55",
"[  c #4F5552",
"{  c #665948",
"}  c #735C45",
"|  c #645E56",
" . c #4A7B49",
".. c #596757",
"X. c #547051",
"o. c #676559",
"O. c #776957",
"+. c #707252",
"@. c #565D65",
"#. c #587265",
"$. c #686D65",
"%. c #697667",
"&. c #777769",
"*. c #767D74",
"=. c #6C7872",
"-. c #896536",
";. c #976D36",
":. c #94722E",
">. c #A07B31",
",. c #886C23",
"<. c #87775A",
"1. c #977856",
"2. c #8F7049",
"3. c #A47B4C",
"4. c #897B67",
"5. c #39861E",
"6. c #1B842A",
"7. c #288928",
"8. c #378923",
"9. c #2C912A",
"0. c #3B9D29",
"q. c #379627",
"w. c #369139",
"e. c #3FA129",
"r. c #3FA030",
"t. c #5A941B",
"y. c #648B1A",
"u. c #72A81A",
"i. c #439626",
"p. c #4A8E29",
"a. c #6F9227",
"s. c #41A329",
"d. c #4EA336",
"f. c #6EA423",
"g. c #378D41",
"h. c #469746",
"j. c #479847",
"k. c #469748",
"l. c #49974A",
"z. c #499849",
"x. c #489947",
"c. c #4E9B52",
"v. c #539C54",
"b. c #579A58",
"n. c #4F884F",
"m. c #6A8D57",
"M. c #5CA25C",
"N. c #58A458",
"B. c #57A74B",
"V. c #5D9560",
"C. c #678867",
"Z. c #669A67",
"A. c #798778",
"S. c #78987A",
"D. c #71926E",
"F. c #5DA162",
"G. c #63A363",
"H. c #6BA56C",
"J. c #68A76A",
"K. c #6CA971",
"L. c #73AA73",
"P. c #78A879",
"I. c #75AE73",
"U. c #61A35F",
"Y. c #B1991B",
"T. c #8EB119",
"R. c #B4A90F",
"E. c #8F972C",
"W. c #B89C2A",
"Q. c #A88536",
"!. c #BA9939",
"~. c #A99030",
"^. c #94A727",
"/. c #B8A72D",
"(. c #8D9117",
"). c #C8B715",
"_. c #D0BD1D",
"`. c #C19E3B",
"'. c #C5AB2B",
"]. c #CCB42A",
"[. c #D2BB28",
"{. c #C6A737",
"}. c #D3B738",
"|. c #CDB333",
" X c #B9CA16",
".X c #D7C81B",
"XX c #CEC810",
"oX c #E5D71A",
"OX c #E1CF1E",
"+X c #D9C524",
"@X c #D9C92F",
"#X c #E3D129",
"$X c #EDE323",
"%X c #B28B46",
"&X c #BB9645",
"*X c #AE8950",
"=X c #B8A64A",
"-X c #85897E",
";X c #918B72",
":X c #A78B68",
">X c #B89A76",
",X c #B2946D",
"<X c #8BAF78",
"1X c #B3A776",
"2X c #99835D",
"3X c #C29A47",
"4X c #C7A846",
"5X c #CFB251",
"6X c #C19D72",
"7X c #C6A67A",
"8X c #CCB16E",
"9X c #DCC750",
"0X c #D5CA74",
"qX c #E6D36F",
"wX c #ECDC54",
"eX c #BBCA73",
"rX c #2E7585",
"tX c #6B7691",
"yX c #697BA6",
"uX c #78918D",
"iX c #7DB384",
"pX c #7DAA84",
"aX c #6399A8",
"sX c #32819B",
"dX c #858A86",
"fX c #869A86",
"gX c #909891",
"hX c #86A885",
"jX c #86B488",
"kX c #95B789",
"lX c #96A795",
"zX c #98B696",
"xX c #92B08E",
"cX c #AFB290",
"vX c #A9B6A8",
"bX c #B0B4AB",
"nX c #9BA295",
"mX c #C8AC86",
"MX c #C8B88B",
"NX c #D3B78B",
"BX c #D8BD94",
"VX c #C8BA95",
"CX c #C1BBA6",
"ZX c #B6C494",
"AX c #B3C7AD",
"SX c #9EC29F",
"DX c #DCC49A",
"FX c #CFC893",
"GX c #E5CE95",
"HX c #D2CDAB",
"JX c #E8D6AB",
"KX c #EBD8AD",
"LX c #CBD0C1",
/* pixels */
"z.z.j.z.B.b.G.K.L.L.L.L.I.<X<X=X*X*X;.-.E U W H G G c x g g b n i.s.e.e.s.s.s.0.q.9.9.w.c.K.SXjXiXiXK.K.J.K.K.J.N.c.z.k.k.x.x.z.",
"j.j.h.z.b.U.I.<XhXjXjX<X<XcX1X1X&X!.>.-.,.! Q H J H c x g g b p.s.s.s.e.s.s.s.e.9.9.9.0.z.J.iXjXiXiXiXI.iXiXK.K.F.c.z.k.g.z.x.x.",
"j.j.h.l.U.I.kXcXvXAXbXFXFXFX0X9X5X].W.Y.Y.(.a.p.5.b v x g x b 5.i.s.s.s.s.s.s.e.q.q.9.q.r.N.I.iXiXiXiXiXjXjXiXiXF.N.g.g.j.z.z.z.",
"z.z.N.G.I.kXvXbXCXVXFXNXFXqX0X9X#X.XXXXX).R.E.f.p.5.b x x c J 8.e.s.e.e.s.s.s.e.e.q.e.q.r.x.N.J.J.J.J.iXiXiXiXiXK.F.N.c.j.k.z.z.",
"b.M.K.jXkXZXMXNX8X8X6X8X5X5X9X@X#XoXoXoXoXXX XT.f.t.n b c c b 7.5.0.0.0.s.s.s.s.e.e.0.0.e.e.r.e.w.g.g.k.N.J.pXiXP.H.b.c.z.k.k.z.",
"G.L.jXkXZXFXFX5X5X|.{.{.4X{.|.[.+X.XoXoXoX@X@X/.E.a.p.P b v b b 5.q.q.q.e.s.s.s.e.e.e.e.e.e.9.9.6.6.6.9.w.k.Z.P.P.H.G.b.z.z.j.z.",
"K.<XzXZXcX0X5X5XOX+X[.'.`.!.!.!.!.!.|.@X@X}.4X4X!.E.a.p.8.b v c v 6.7.q.0.s.s.s.e.e.e.e.e.e.q.9.9.6.6.6.6.6.n.n.C.Z.F.F.v.l.z.j.",
"<X<XcXFX8X5X}.+XOXOX.X].!.~.%X*X%X%X!.{.|.}.}.4X=X^.E.d.p.7.v x x c 7.5.0.e.s.s.e.0.e.e.e.e.0.q.9.9.6.6.6.6.(  . .m.Z.F.F.N.N.z.",
"1X1X7X8X5X}.+X_.+X+X_.'.`.3X%X3.%XQ.`.|.[.[.}.'.!.~.E.f.s.5.v x g x 5.5.s.s.s.s.s.s.e.s.e.0.q.9.9.6.F F D S A H K n.C.S.pXK.V.V.",
"6X6X8X5X}.+X+X+X[.].{.`.`.3X3X3X%X%X{.}.+X+X[.'./.!.E.f.t.q.5.c x c b 5.5.s.e.0.q.e.0.q.q.q.9.6.6.6.F F D S S A A  .n.C.K.K.Z.Z.",
"3.3.!.`.+XOXoXOX{.3X`.`.3X3X3X3.%X3X|.+XOXoX+X].!.~.^.u.u.t.5.5.b v b 5.5.5.5.5.q.5.q.9.5.7.6.6.F F F F F D S Z A H K X.#.uXZ.F.",
"-.:.>.'.OXoXoXOX|.`.3.3X%X%X3.3X3X4X}.OX$XoXOX]./.~.T.T.T.u.t.q.5.b b v b b 5.b 7.b b 7.6.6.S 6.F F F F F D F Z Z f H W  .n.V.F.",
"-.-.>.Y._.oXoXOX}.`.>.3.2.2.3.3.8X5X}.#XoXoX+X'.W././.R. X Xu.s.5.7.b v g g x g g g x x c c S S F F F F F F D S Z g H K  .V.n.c.",
"2.3.!.{.|.+XOX[.{.`.>.;.2.3.3.3X8X8X9X}.+X+X].'.!.W.].XXoX XT.u.5.b v g g g d g d d d g c z S S F F F F F F F Z s m H K  .g.n.g.",
"1X1X6X5X5X{.{.{.>.Q.3.3.3.3.6X6XmX8X5X4X|.].W.!.!./.)..XXX XT.d.5.b x g h i g s l c l z z z S S D D F F F F F S Z A G J K w. . .",
"xXcXcX7X8X3X`.>.>.;.3.1.,X6XmXmXBX8X8X4X4X{.!.!.!./.[..XoX XT.f.5.b x g i i x z z z z Z S 6.S S S D D D F D F S Z Z G G G H K ` ",
"<X<XcXcX8X6X%X>.-.E -.1.1.mXmXBXBXmXmX6X3X3X`.`.`.'.[..XXXXX^.a.P b v g s s l z S S S S S G S Z A Z Z S S S S D S D S S Z f B B ",
"Z.L.<XcX1X>X:X2.} T -.<.3.mXBXBXBXBXmXmX6X3X3X3X|.[.[.[.XX/.~.a.p.n v v f f l z Z Z Z S S Z z z s l s Z Z Z S S D D S S z f a u ",
"c.b.Z.P.kXkXfX4.{ T _ O.1.>XBXBXBXBXBXmX7X8X9X}.#XOX[.'./.~.Q.E.! Q K H c s s s f c Z Z Z Z l d d p p p s z S D D D D Z l s i h ",
"d.k.l.G.P.hXfX*._ 6 t _ 1.,XmXmXmXmXBXmXNX0XwX#XoXoX.X'.~.Q.>.;.! ! W C A f d s g f l z z l d i u u = u u d z Z S S S Z f i h - ",
"h.j.l.v.H.S.-X%.) 6 9 T { 2.1.1.1.4.,XmXBXGXwXwX$XoX[.'.~.>.;.;.,.! R W B A f l s l f s s d d i = % % % % u d z z S z l d u $ $ ",
"c.v.b.U.L.<X-X$.) t 9 t T } | } O.O.-XmXBXGXwXwX$XOX[.'.!.>.;.-.! E R R B H H H H A H A g j p u % $ $ . $ % u d l z z s i % .   ",
"U.J.L.jXxXhX-X$._ T T t _ _ { _ | O.;XcXGXGXqXwX#X+X].`.3.3.;.-.E R R R Q Q Q n.p. . .Q W n g ; % . . .   . % u d s l d h % .   ",
"J.L.hXxXgXA.&.+.| } { { | @.@.@.@.&.nXcXDXGXqXwX}.|.{.3X%X>.;.-.-.E ! ! ! m.Z.D.S.<XL.m.m.Q k a % $ .     . $ = i d s i = $ .   ",
"H.L.<XdX*.o.' { 4.1.4.=.tXtXtXtXuXhXvXAXJXDX0X5X3X3X3X&X&XQ.>.-.-.-.2.1.>XmXVXFXFXFXMXcX;Xm.Q M ; * X . o & & = h i i h h $ .   ",
"H.L.S.A.$._ ) ' 4.nX;XtXyXyXyXtXfXxXvXHXJXDXNX6X3X%X!.3X{.~.>.,.E -.3.,XNXGXJXKXKXJXDXmX,X<.R j M M 4 6 7 4 ; = h u h u % $ .   ",
"H.K.S.A.o.) Y ' 1.nXgXdXyXyXyXgXpXzXAXHXJXBXmX6X3.Q.W.'.).Y.,.~ E } 1.6XFXKXKXKXJXGXNX>X2X+.R N V ` ..%...` ; - h i u u % $ .   ",
"J.K.S.uX$.] ' { 4.gX4.dXyXyXyXyXlXcXZXHXJXBXmX3.>.>.Y.).XXR.,.~ U { 4.cXHXHXKXJXDXNX7X:X2.T 1 4 Y $.uXgXuX$.V * = i i u % $ .   ",
"J.L.hXfXdX&.O.} <.1.4.-XdXdXgXnXvXHXKXKXKXDXmX3.>.>.Y.).XXR.I L 6 [ tXlXAXLXHXHXmX>X:X2.E 0 > 7 [ A.lXbXvXtXt * - = u u h $ .   ",
"G.H.<XhXdX-X&.+.O.O.O.&.4.gXbXbXHXHXKXKXKXBXmX3.;.>.R.).XXR.I L 7 / ( sXzXSXbXcX>X1.} E 0 , # 7 ..A.vXLXbXdX) 3 & % = = % $ . . ",
"U.U.J.H.P.S.A.&.| { ] | &.;XCXBXJXKXKXKXKXBX6X3.;.>.R.).XXR.,.L 3 ^ rXrXaXaXfX-X1.! U 1 , : X 5 | dXbXbXbXgX) 3 * * % = = & $ . ",
"b.b.v.U.J.P.-XA.$.o.| | $.4.mXmXBXJXKXKXJXNX6X3.;.>.R.).XXR.,.w 4 2 ( ( rXrX#.o.E U t 0 0 w L U <.nXbXLXbXnX%.) V 2 2 ; ; 4 N N ",
"l.l.l.v.G.L.hXhXfX-X*.$.o.O.4.;XmXBXDXDXNXmX*X3.:.>.Y.).XXR.I L * 8 2 ^ ^ ^ 2 6 L U E ~ ,.,.(.E.=X8XJXHXLXAXSXS.#.` 6 4 V X.#.=.",
"z.z.z.l.b.J.I.<XhXhXdX*.$.o.O.<.:X>X7XcX>X,X1.2.,.>.Y.).).R.I 1 O o o o 8 8 & > 1 U E -.Q././.|.9XGXJXLXAXAXAXSXfX%.] [ ..#.S.hX",
"x.x.x.z.z.v.b.M.H.P.fXdXdX*.&.$.<.4.2X2X4.<.} E y ,.(.R.R.R.I L O . o $ & & $ X > 0 E ! ~.=X9XwXwXqXZXSXiXSXAXSXzXgXuX*.A.S.S.K.",
"x.z.x.x.x.x.z.z.v.H.lXvXnXdX*.%.o.{ ! { { R Y r w L ,.(.Y.Y.I 0 : . $ % - - % - * > r ~ 2.=X0X0XeXeXkXiXJ.iXjXSXvXzXlXgXuXS.H.J.",
"z.x.z.z.d.l.l.z.v.L.vXbXbXnXdX%.R V M M j M < < # w ~ :.>.:.~ L * & - = i d i u - * < 5 R <.<XZXkX<XI.J.N.N.K.iXiXjXxXjXiXK.G.F.",
"x.l.z.z.l.l.l.n.b.L.cXbXvXgX*.] C B ; = a i a = : j R E -.! y 0 < * ; ; p d s p = % & 3 ) o.gXzXiXJ.N.B.j.j.c.N.K.K.iXI.K.J.M.b.",
"z.k.k.x.l.v.n.b.B.H.jXjXA.$.` V M m f s l f f d g a j N r w w 0 , > 3 ; ; p d d i = % 4 / #.fXhXI.B.B.d.j.k.c.c.b.b.N.b.b.v.c.c.",
"z.z.z.z.v.U.U.Z.Z.H.I.D.+._ N M m A A S Z z l g g g i ; < 1 5 5 1 , 3 * & = d s i u - M V #.S.jXB.B.d.s.r.c.k.j.k.k.k.k.k.k.k.k.",
"x.h.h.x.N.J.P.hX-XP.D.C.+.Q L n H F F F F S z s d i = = ; j M M 1 > > O & - p s d u ; M / #.S.P.H.N.x.j.h.x.x.l.k.k.k.k.k.k.z.z.",
"h.x.h.c.N.K.<XfX-XC.m.a.,.a.y.P J F F G G A f i u = u a m B C B B < * * & & p d i u - 4 / ..-XjXL.G.N.l.l.l.x.x.k.k.z.z.k.k.z.k.",
"x.j.h.z.M.J.S.C...' Q I (.T.u.t.7.b v c H x a - & - p m H K g. .K B ; * o & ; p p ; ; 4 6 ..A.hXhXP.H.F.l.l.x.x.z.z.z.k.j.z.z.z.",
"j.h.h.c.U.Z.D.%.` r n P (.T.u.y.K n n k k j ; * & 2 B  .n.c.F.c.n.K M 4 O o ; < M ; * > 5 _ %.A.fXhXP.L.b.c.x.x.z.k.k.z.k.z.z.k.",
"j.j.x.c.U.G.D.%.) 4 k W P P y.P W W L L L 0 > : O 6 @.C.S.K.L.Z.b. .` 5 * O , , 1 3 , , 7 5 ) ] A.gXxXjXJ.N.z.x.k.j.j.x.z.z.x.k.",
"j.j.h.z.N.H.D.#.V 4 j k P n P P R Q ~ L U L 1 > 3 6 @.tXuXhXP.S.Z.X.[ 6 > # # , 9 7 1 , , , 3 6 $.dXlXjXL.M.c.x.x.j.j.k.x.k.z.z.",
"x.j.k.z.N.Z.Z.%./ 4 a g v J p.Q P Q Q ~ R L 1 : O 7 [ $.C.A.*.*.%...) 7 O O # 9 r 0 1 j > > O 4 ] *.fXhXL.N.l.k.j.j.k.x.x.z.j.k.",
"j.j.k.z.M.J.Z.%.` N M g A J 8.p.p.Q p.Q W R j < O 3 6 ' | O.<.O.{ T 6 > O @ # , 5 N k j < ; O 3 [ *.hXiXK.N.N.j.j.j.z.x.k.k.x.z.",
"j.j.h.z.M.H.S.A.] Y C B H 7.q.q.i.i.p.8.p.n j ; X O > r T T E y t 7 > @ X X # 1 N k m m m m j V $.dXxXjXK.b.c.k.k.k.z.k.z.z.x.k.",
"j.j.x.x.N.S.pX-X=...` C H n 5.8.0.i.q.9.7.H g ; X X # 7 t y e e 9 , @ X X X < j j m m m m C / ..dXgXzXjXK.N.z.k.z.z.x.k.x.k.z.z.",
"z.h.j.z.b.H.hXhXhXA.%...C B v b 8.q.q.7.G c a & X @ , 9 y y e e q 9 # @ O * j B k g a j V [ =.dXlXzXzXjXJ.b.l.j.z.j.h.h.x.z.j.k.",
"j.x.k.z.v.Z.S.pXP.hXfXA...R K K J J b G g p - $ X > , e y y -.E E w , > : * a B B B C C X.=.gXlXlXkXiXK.U.N.l.z.j.j.h.h.j.k.x.z.",
"j.j.j.k.z.c.N.b.F.P.lXlXdX=.#. .C H k a - o . + O , U } 2.1.1.1.-.E r # @ X * ; N R ..&.;XnXzXxXpXJ.F.v.c.x.z.z.k.j.j.j.k.k.z.x.",
"j.j.x.j.x.k.z.l.v.K.zXbXvXgXA.] V M < ; X   + + O 7 T <.:X>X>X:X<.} t , X X & < Y ] A.fXkXzXkX<XJ.b.c.k.z.z.j.k.z.j.j.j.z.j.x.k.",
"j.j.j.k.j.j.k.l.b.K.SXAXbXnXA...5 > > : X + + + # 1 { <.:X>X,X:X1.} t 7 O O * 6 [ %.fXhXjX<XI.J.F.v.l.k.z.k.k.h.j.j.j.j.k.k.k.x.",
"k.x.j.j.j.j.k.l.v.H.lXbXbXgX&.' 1 , , # @ @ @ @ > 5 T } <.4.4.O.} T r , 3 7 Y [ %.S.uX<XK.J.G.N.c.z.z.z.k.z.j.h.j.j.j.j.x.z.z.x.",
"l.x.x.z.x.h.l.l.c.Z.S.-X&.| t r 9 9 9 9 9 9 , , , 9 r 5 5 6 6 5 > > > > 6 _ $.A.fXS.L.U.v.v.l.c.z.z.z.j.z.j.j.j.z.j.j.j.z.k.x.z.",
"j.j.l.k.h.x.l.l.l.b.D.$.) 6 7 , q q q q q q q 9 9 , # O X X X + X O 3 N _ $.A.S.P.P.Z.c.x.h.h.j.z.j.j.j.h.z.j.j.k.z.j.j.j.j.z.k.",
"j.j.l.j.x.h.x.x.l.n.C.@.) 7 , , q y y e e e q 9 9 , # X X     o o 2 6 [ o.C.D.H.G.M.c.z.j.h.h.j.j.j.j.j.z.z.j.z.z.j.j.h.h.h.j.x.",
"j.j.x.z.j.l.l.x.l.V.C.$.[ r , 9 q y y e e q q 9 9 , 3 O # 8 O O 3 / [ #.C.Z.Z.b.v.l.z.j.h.h.j.x.j.j.j.j.z.k.l.z.x.j.h.h.h.h.j.z.",
"z.x.k.z.l.h.x.l.v.V.D.A.@._ r r t e t q q 9 9 9 9 , 7 7 6 6 V V ` ..%.C.b.c.l.c.z.z.z.j.j.j.z.j.z.z.x.k.j.j.j.j.j.z.x.k.j.j.z.h.",
"k.z.z.x.x.l.x.l.c.V.D.D.&.| _ ) t 9 9 9 , , , , , 7 Y [ [ ] ......+.C.C.c.k.k.k.j.z.z.x.z.k.x.z.z.j.x.z.j.j.j.j.z.z.j.h.z.j.z.z.",
"j.j.h.z.l.x.x.l.l.v.V.Z.C.X.X.Y 7 3 @ @ + + + O 3 t | $.A.C.C.C.n.m.C.b.l.k.k.l.j.j.j.j.h.x.l.j.j.j.h.k.z.x.x.k.h.j.z.x.l.z.z.h.",
"j.h.z.z.x.l.x.l.l.l.B.U.Z.m.n.` 6 # X +       O 3 ) &.tXS.uXZ.V.b.n.n.b.l.l.l.l.k.k.x.j.j.k.x.z.k.j.j.x.k.z.j.j.j.j.k.x.j.j.z.z."
};
