/* XPM */
static char *xpm_[] = {
/* columns rows colors chars-per-pixel */
"64 64 256 2 ",
"   c #080B05",
".  c #051D09",
"X  c #061607",
"o  c #18170C",
"O  c #191712",
"+  c #130E09",
"@  c #271C14",
"#  c #251C10",
"$  c #06240A",
"%  c #0C230B",
"&  c #092C0C",
"*  c #072C0C",
"=  c #15250D",
"-  c #09330E",
";  c #0A380F",
":  c #192811",
">  c #0A3C11",
",  c #0A3410",
"<  c #1A3713",
"1  c #282315",
"2  c #372717",
"3  c #273819",
"4  c #363719",
"5  c #23220F",
"6  c #2B2923",
"7  c #362C24",
"8  c #383529",
"9  c #3B3834",
"0  c #2E3721",
"q  c #493519",
"w  c #523A1C",
"e  c #422B1A",
"r  c #473627",
"t  c #563C24",
"y  c #453C34",
"u  c #0B4313",
"i  c #0C4B16",
"p  c #0C4E19",
"a  c #154A17",
"s  c #0C5419",
"d  c #0D5B1C",
"f  c #0E5117",
"g  c #1B5D16",
"h  c #17581B",
"j  c #264A19",
"k  c #3B481A",
"l  c #26571A",
"z  c #39591C",
"x  c #0E621F",
"c  c #13641D",
"v  c #1B621A",
"b  c #1D681B",
"n  c #1C721E",
"m  c #27691B",
"M  c #25721C",
"N  c #2C751C",
"B  c #2C7A1E",
"V  c #26791E",
"C  c #34721D",
"Z  c #195724",
"A  c #13582C",
"S  c #284825",
"D  c #275A24",
"F  c #355925",
"G  c #354C31",
"H  c #0E6B22",
"J  c #0D6724",
"K  c #116B22",
"L  c #166523",
"P  c #0F7326",
"I  c #0F7829",
"U  c #127425",
"Y  c #137C28",
"T  c #177C26",
"R  c #126537",
"E  c #286528",
"W  c #386727",
"Q  c #297C21",
"!  c #387B22",
"~  c #306838",
"^  c #544817",
"/  c #4B4F1B",
"(  c #6D6C1A",
")  c #484827",
"_  c #584627",
"`  c #465726",
"'  c #48453A",
"]  c #564A36",
"[  c #57573A",
"{  c #535729",
"}  c #66492B",
"|  c #6E5530",
" . c #4B6529",
".. c #566826",
"X. c #4A7823",
"o. c #557230",
"O. c #6D7030",
"+. c #596118",
"@. c #37474C",
"#. c #116F53",
"$. c #2C7356",
"%. c #217D77",
"&. c #4A4B46",
"*. c #534E47",
"=. c #57564A",
"-. c #595C54",
";. c #49544F",
":. c #635948",
">. c #745B41",
",. c #566847",
"<. c #5A6657",
"1. c #5D7656",
"2. c #4F7748",
"3. c #666647",
"4. c #79674A",
"5. c #64685A",
"6. c #727554",
"7. c #5B6C64",
"8. c #676A64",
"9. c #687665",
"0. c #75786A",
"q. c #777A75",
"w. c #2E3943",
"e. c #855C36",
"r. c #957137",
"t. c #A37A3B",
"y. c #8C711B",
"u. c #896947",
"i. c #997647",
"p. c #977B56",
"a. c #8C7351",
"s. c #A27B47",
"d. c #8D7C64",
"f. c #38851F",
"g. c #1B8228",
"h. c #1A8228",
"j. c #288926",
"k. c #348B23",
"l. c #3A8B22",
"z. c #368421",
"x. c #359325",
"c. c #3D9B27",
"v. c #3B9D28",
"b. c #369727",
"n. c #2C9429",
"m. c #3FA229",
"M. c #478A26",
"N. c #459727",
"B. c #508E2B",
"V. c #6F9332",
"C. c #41A429",
"Z. c #56A524",
"A. c #73A928",
"S. c #60A01A",
"D. c #218B7A",
"F. c #459746",
"G. c #479847",
"H. c #4A974B",
"J. c #479848",
"K. c #4A994A",
"L. c #489847",
"P. c #509B4E",
"I. c #5A895A",
"U. c #4F9A50",
"Y. c #539D53",
"T. c #5B9B5B",
"R. c #579658",
"E. c #49864A",
"W. c #6B8D52",
"Q. c #5CA15C",
"!. c #58A158",
"~. c #61A35D",
"^. c #528B70",
"/. c #698667",
"(. c #74866C",
"). c #649C63",
"_. c #699768",
"`. c #798877",
"'. c #799877",
"]. c #79976B",
"[. c #64A463",
"{. c #6CA46B",
"}. c #6AA767",
"|. c #74A76D",
" X c #79A976",
".X c #7EB17E",
"XX c #5EA66C",
"oX c #958E18",
"OX c #87BA1D",
"+X c #918C31",
"@X c #A98839",
"#X c #B09933",
"$X c #92A92E",
"%X c #B1AC2D",
"&X c #AEAC18",
"*X c #C6B02E",
"=X c #C1B51D",
"-X c #86C11C",
";X c #B7D017",
":X c #D0D118",
">X c #E2DB14",
",X c #D2C429",
"<X c #DEDB22",
"1X c #968757",
"2X c #A7845A",
"3X c #B1964D",
"4X c #BCA345",
"5X c #898967",
"6X c #978966",
"7X c #849769",
"8X c #859B7A",
"9X c #999978",
"0X c #919271",
"qX c #A88A66",
"wX c #A8956C",
"eX c #AA9879",
"rX c #B69A77",
"tX c #B69769",
"yX c #86A977",
"uX c #98A87A",
"iX c #88AB74",
"pX c #B6A67A",
"aX c #ABA677",
"sX c #86AA45",
"dX c #C3A876",
"fX c #C6AA5D",
"gX c #DDCA76",
"hX c #E2D278",
"jX c #31958B",
"kX c #17888C",
"lX c #838A83",
"zX c #879886",
"xX c #92988D",
"cX c #AD9D84",
"vX c #87A785",
"bX c #97AA88",
"nX c #88B286",
"mX c #97B594",
"MX c #96AF91",
"NX c #B6A985",
"BX c #B6B48A",
"VX c #A8B69A",
"CX c #ABB18D",
"ZX c #B0B5AD",
"AX c #C5AC86",
"SX c #C8B389",
"DX c #D2BA8B",
"FX c #C8B893",
"GX c #CFB994",
"HX c #C3BDA3",
"JX c #B8C4AC",
"KX c #B8C09C",
"LX c #D3C493",
"PX c #E1C99B",
"IX c #C2C4AF",
"UX c #E5CCA1",
/* pixels */
"J.J.J.J.L.G.G.J.H.L.L.H.L.L.L.L.J.J.U.Y.Q.}.|. X5Xa.u.| e.r.t.t.t.t.t.s.t.t.t.e.e.i.rXAXSXCXnX.X|.}.~.!.P.C.C.C.K.U.L.K.L.K.J.H.",
"J.J.J.J.G.G.J.L.L.L.L.L.H.L.J.J.F.J.U.!.[.{.yX8X5Xd.a.r.t.@X@X@X#X@X@Xt.s.t.r.r.e.i.tXAXLXBXBXnXnXiX|.}.!.P.G.C.G.K.K.L.K.L.K.L.",
"G.G.J.J.G.G.H.L.H.L.L.J.J.J.J.G.F.J.R.T.{. XxXzX5Xp.2X@X#X#X%X=X*X*X#X#Xt.t.r.r.e.s.fXdXLXLXLXKXKXKXmX.X}.!.P.C.G.L.K.K.J.J.J.J.",
"L.G.J.J.J.J.L.L.L.L.H.J.G.J.L.L.U.T.[._. X'.lX`.u.r.2X4X*X*X:X:X,X,X=X*X#Xt.r.r.r.@X*XfXgXgXhXgXgXgXKXKXnX XQ.P.K.L.L.L.J.J.J.J.",
"J.J.L.J.J.J.J.J.J.J.J.J.L.L.J.Y.[. XnX.X'.9.<.*.[ O.1X4X=X:X>X>X>X:X:X=X#X@Xr.r.t.@X%X,X<X<X<XfX4XaXFXIXKXmX.X!.U.J.J.J.J.J.J.J.",
"L.L.L.L.L.L.J.L.G.J.J.J.L.L.J.T.|.nXvXzX9.,.) G { O.+X3X%X;X;X:X;X:X;X;X#X+X+X+X+X$X%X:X<X>X,X%X4XtXAXIXJXVXiX}.!.K.K.K.J.J.J.J.",
"H.L.L.H.L.L.L.L.J.J.J.J.L.H.U.T.{.'.'.(.,. .W ! X.B.V.A.A.-X-X-X-X-X-XA.A.V.V.B.V.$XOX:X<X>X<X*X%XtXrXNXSXBXiX|.Q.!.U.K.J.J.J.J.",
"L.L.H.L.H.L.H.L.J.J.J.H.R.T._._.'.(.9.,.G F E ! l.N.N.B.Z.Z.Z.S.Z.Z.S.Z.N.Z.N.B.B.A.OX;X:X<X,X*X3X3X3XtXdXpXCXiX|.[.Q.Y.K.J.J.J.",
"K.F.K.F.J.J.J.F.G.J.U.R./.'.vXvX'./.,.F D Z m N f.f.f.f.f.f.f.f.c.l.l.l.f.l.l.l.f.l.S.-X;X;X*X%X3X3X4X*X*XpXaXaXbXiX|.T.P.F.F.F.",
"F.K.F.K.J.J.K.K.K.K.Y.).`.lXzX'.9.2. .D D g m m N N m M M M M M M M V V M V V M V f.S.S.OXOX%X4X4X*X*X*X,X4XtXtXpXuXiX~.P.F.F.L.",
"J.J.J.F.F.J.K.Y.!.Q.|.'.lXq.9.<.[ F E m Q m g h g g g g g g g g g g g g g g g g g m N f.B.A.$X$X%X*X:X:X*X%X@X1X6X0X7X~.P.F.F.L.",
"J.J.F.K.F.J.K.Y.Q.{.yXyX`.7.;.G j j m m Q C m g g g g g v g v g g g g g g g b g g g M N z.M.B.+X#X#X&X&XoXoX+Xi.1X1X].~.P.F.F.L.",
"J.J.J.J.J.J.K.Y.[.|.vXzXI.$.G D h g g b M M V M N N C N B B B B B N f.V B B f.M N B b M b V f.B.o.O.( ( +.( y.i.2X6X7X~.P.F.F.F.",
"J.J.K.F.F.J.J.Y.).'.zX(.~ S Z Z g g g b M V f.f.f.l.f.l.x.l.x.l.l.f.k.k.x.l.l.f.l.f.f.b b b M N W  .z / k { O.s.2XwXiX~.P.F.F.L.",
"J.J.F.F.F.J.U.Y.T._.`.7.9 < a Z c c v b M z.x.c.c.c.c.c.c.m.m.m.c.c.m.m.c.m.c.c.c.x.k.j.M b b b m j < < 0 ] O.1XtXaXiX~.P.L.L.L.",
"K.K.U.U.U.Y.Y.Q._._./.;.6 % > p g b b M V j.c.C.C.C.m.C.C.C.C.C.C.C.C.C.C.C.C.C.C.m.x.f.f.M b g f u & = 7 ' u.1XwXiXiX}.Y.K.K.L.",
"Y.!.!.!.!.~.}.}.|.'.`.-.6 + & u h v M z.j.b.m.m.C.C.C.C.C.C.C.C.C.C.C.C.C.C.C.m.m.m.m.x.f.B M v a ; $ = k =.6.].7X|.{.{.[.!.P.P.",
"Q.[.|..XiXiXiXiXiX8X`.<.6 . & u g v M j.k.x.b.m.C.C.C.C.C.C.C.C.C.C.C.C.C.C.C.C.m.m.c.x.f.B M b f ; * : G [ W.7XiXiXyXyX X|.~.Y.",
"}..XmXVXCXBXBXBXBXaX5X3.3 - u f g v b M B j.x.c.m.C.C.C.C.C.C.C.C.C.C.C.C.C.m.C.m.b.k.z.M b n v s i > u F ,.7XbXBXBXBXBXBXuX|.~.",
" XnXVXKXLXFXSXDXAXpX7X,.S u f d d v c b M z.k.c.N.C.C.C.C.C.C.C.C.C.C.C.C.C.m.m.m.c.k.V b c c c c s i a F o.wXBXSXDXSXSXSXaXiX|.",
"8XcXCXAXBXAXAXAXAXpX7X2.D p d J c c c c b N k.c.m.C.C.C.C.C.m.C.C.C.C.C.m.m.m.m.m.b.k.V b c x c K K s a F 3.7XdXDXDXSXAXBXNX9X8X",
"5X0XeXdXSXGXDXDXSXNX7X2.E d d J x K K c n j.k.b.m.C.C.C.C.C.m.m.C.C.C.C.m.m.m.m.m.m.k.V U c P P U K x l z W.wXpXDXLXDXSXAXaX9X0X",
"a.p.qXdXDXPXUXPXGXBX0XE.D Z x J Y U U U U j.x.c.m.C.C.C.C.C.C.m.C.C.C.C.m.m.m.m.C.c.n.g.T U I P U K h Z W 6.uXLXUXUXUXDXAXeX2Xp.",
"p.p.2XdXdXDXPXPXDXpX7X2.D d J P Y Y U U U T j.x.m.m.C.C.C.C.C.C.C.C.C.C.m.m.m.m.c.x.j.g.T U P P U K h g C B.0XSXGXPXDXSXNXeXqXp.",
"eXeXtXrXtXrXdXdXrXtXa.o.L d J P U I K H U U T j.x.m.m.m.C.C.C.C.C.C.m.m.m.m.m.m.b.j.g.U U c x U U b g l W V.5XwXdXdXAXAXcXrXrXqX",
"NXNXNXcXrXqXs.qXs.p.6. .D d R J x K x x x c U g.j.b.m.m.m.m.C.C.m.m.m.m.v.v.v.n.j.T U x x x d c m b c g E o.6.p.p.s.p.rXrXcXcXcX",
"uXbXCXCXcXtX2Xi.a.4.3.o.$.R R R d g f i f d c U h.n.n.m.m.m.C.C.C.C.m.m.b.n.n.n.j.U x s i i f d c K A R #.$.3.u.i.s.s.rXcXaX0X0X",
" XvXMXZXCXaX2Xa.4.4.1.$.#.#.#.A s u u u u f x U Y g.n.b.v.m.m.m.C.C.m.b.n.n.j.h.T U d i u ; u i d R #.#.$.$.-.4.u.i.p.p.eXzX]./.",
").|..XMXMXCX9X1X4.4.9.^.D.D.#.#.p ; - & - u d P I h.h.g.n.m.v.m.m.m.n.n.n.g.g.g.T H s u - & & ; p #.#.kXkX%.7.4.u.p.6X9X8X X_.T.",
"Y.Q.[. XMXMXuX5X6.3.1.^.jXD.$.E a < % % & u d P I h.h.h.n.n.b.v.n.v.n.n.g.g.h.h.I H f ; % % % < S ~ kXjXjX^.7.5.4.a.7X7X|.{.R.R.",
"K.K.Y.Q. XzX0X0.:.[ ,.I.}.XXE.E j 1 = . % ; d P I I h.h.h.j.j.j.n.n.h.h.h.h.h.h.I H p - % o 5 3 k  .Y.XX{.I.,.[ =.5.W._.T.P.K.K.",
"L.J.G.Y.{. X7X0.=.[ ,.W.sX$XV...w 2 # o % ; d c I I I h.Y g.j.g.h.h.h.h.h.h.h.h.I x i - o # 5 4 ^ O.V.sXsXW.o.[ =.<.I.T.K.F.F.L.",
"F.F.F.U.{. XyX`.5.=.O.O.%X&Xy.( ^ q 1 o $ - p x P I I I Y h.h.h.h.h.h.I I I I I U x u - . # 2 q t ( oX&XoXoXO.o.5.9.).Y.K.F.F.J.",
"L.F.F.Y.}..XyXyX(.6.6.V.oXoXy.y.} w 2 # $ - u d x P I I Y h.h.h.h.h.I I I I P P x s u * . 5 e w } e.y.oXoXV.V.6./.(.[.Q.K.J.J.J.",
"L.J.F.U.[..XnXMXuX9X5X4.| +.| | | ^ 4 5 . % - i x P I I T h.h.I h.I I I I P H x d u - $ o # e _ } | | ( o.6.0.`.8X X|.Q.U.F.F.J.",
"J.F.F.K.Q.}..XnXCXbX9X5X3._ | } } t 2 O X $ * > s c P I h.Y I I h.h.h.I I P x x i > $ . o # 2 t } | } } 1./.`.lX X X}.Q.K.F.J.J.",
"J.J.F.L.U.Y.Q.XX XbXBXCXq.5.=.] w 2 # +   . . * i d H I Y Y I I I h.h.I I P x s u * . X   o @ 8 _ | :.9.8X'.'.XXXXQ.Y.K.K.J.J.J.",
"J.J.J.L.J.J.K.!.{.nXHXZXxXq.-.&.e @ +       . $ > f x P I I I h.h.h.h.h.I H x i * $ X     + o 2 _ :.8.lXMXmX X).Y.K.J.J.F.J.J.J.",
"J.J.J.J.J.J.H.T..XmXIXIXZXzX8.G 1 o +         . * i x P I I I Y h.h.I I P x s u $ X           # 7 *.8.xXZXZXxX`.R.J.J.J.F.F.J.J.",
"J.J.J.J.J.H.Y.XX XmXZXZXxX`.<.G < % .   X   X . * > s x H I Y h.I I h.I x x i ; $ X       X X = 3 G <.lXZXZXxXq.T.U.U.J.J.F.J.J.",
"J.J.J.J.K.Y.Q.}.lXlXxXlX8.;.@.A p > - * . . X X $ & u f x H U U I I I H J i > * . X X . $ & > a A G G ;.9.lXlX'._.[.!.U.J.F.F.J.",
"J.J.F.K.!.[. X.XlXlXq.8.' w.G R E Z Z > - $ . . $ & ; i d c U U Y Y I x d u - $ . . $ $ , a Z E ~ R G @.;.7./.`. X{.[.!.J.F.J.J.",
"J.F.F.U.{..XmXMXxXq.8.*.9 ' <.I.I.E.E Z ; - * $ $ - - ; f x U T h.Y U x i - * * * - - ; a g Q E.7.7.;.@.@.@.8.q.'. X'.Q.K.F.F.F.",
"U.Y.Y.}.nXmXMXzXlX8.*.y y *.9.'.{.^.2.E a u u > - - & - i x U U T I c s > * $ * > u u u h E E.).lXlX7.@.@.@.;.8.q.'.'.{.Q.!.U.U.",
"[.XX XnXmXMXlXq.&.9 y r ] 3.0XcXbX8X1.$.l f h s u ; $ & u f c n U U x i - $ $ - i d h h l  .I.8XmXmXlX7.@.w.w.y =.9.`.vX.X|.[.Q.",
"}..XnXmXMXzX8.;.y 7 7 r t | d.0X8X(.3. .E g c d f ; $ $ > f d v c x s u * $ $ ; s c Z l D [ 5.`.xXxXlX8.*.9 7 y y =.0.'.vX X{.[.",
" X.XMXxX`.8.&.y r e t t t ] ] :.=.*.] ` F F L L i ; $ X & > f f d f u - . . $ ; d x D F ` ) ' =.-.=.;.*.} ] r r y ' -.8.`.'._.).",
"|. XxXlX7.&.9 r } } } | } t r 4 r r ) ) {  .E Z a < . X % - > u u u ; * . X = < h E W F ) ) 8 8 7 y y *.| | | } _ y ' ;.8./._.).",
" X X'.(.;.9 y t >.u.i.u.e.} r 2 3 4 F `  . .W F j : 5 O o % & & - & - = o # 1 3 F `  ...` k 4 3 3 8 ] | u.p.u.u.>.t y *.:.<.I.T.",
"|. X'.9.*.y y :.p.qXtXp.p.e.t 7 k j F W  .o...` k 4 2 1 5 = % % % = = 5 1 2 4 ) )  . ... ./ j j 3 k [ 4.p.p.tXp.u.>.y ' =.5.I.T.",
" X XzX`.-.*.=.a.cXAXAXcXqXa.| G k l C z.B.o...{ } ^ ^ q 2 5 o . = % = 5 q w w ^ { ....B.M.C m l j G ,.a.wXcXAXrXd.6.:.*.5.9.I.).",
"XX X'.'.9.8.8.0.eXcXqXqXd.4.] G j l ! M.M.o.o.( O.| { ^ / 4 < : < < < j / +.^ +.+...B.B.M.! C l S S [ 6.d.6XqX9Xd.0.8.8.9.I./.T.",
"XX}.{.|.].'.q.0.0.8.-.*.y y 6 : < l N l.M.B.B.o.X.o.X.X.X.m m m m m m C X.X.X.X.o.B.B.M.M.z.m j < 1 0 ) *.:.:.5.8.8.9./.I.T.T.T.",
"!.!.Q.}.|. X`.q.5.&.9 6 2 O % O - j m f.l.M.M.M.B.M.M.M.M.f.k.f.f.f.f.f.M.M.M.M.M.M.M.M.f.C l j = o O @ 7 y &.&.<.7./._.R.Y.Y.Y.",
"K.K.Y.!.|.vX'.`.8.&.8 @ O X X % = < l C f.l.l.l.l.N.N.C.c.N.c.c.c.c.N.N.N.N.N.c.c.x.l.f.B m j 3 = + + o @ 7 9 ;.<.9./.T.U.H.H.L.",
"J.J.F.U.XX|.'.`.8.*.@.8 O + O O = < 3 j m N Q j.l.c.m.m.C.C.C.m.c.C.C.C.N.N.C.m.b.k.B M l l 3 1 # o + O @ 8 &.<.1./.I.R.H.F.J.J.",
"J.J.J.K.Y.T.)._.9.9.9.;.9 O 1 1 @ 1 : < < l L Q k.l.N.N.N.N.N.c.c.c.v.N.N.N.c.k.k.V v a < : @ @ 2 @ @ 6 y &.2.2.R.R.R.U.F.F.F.H.",
"J.J.J.K.U.H.U.T._.'.lX9.&.9 7 2 @ @ O o : < l E C X.M.M.M.z.! z.V z.! ! M.M.M.z.B M g < : o @ @ 2 7 9 &.-.<.I.H.H.H.U.H.F.F.H.F.",
"J.J.F.F.H.K.K.Y.T._.lXq.8.=.G 7 @ @ @ @ 2 4 k ` ........z l j j g a j z  ...+.+./ / q 2 1 # # @ 6 y -.8.q.(.T.R.H.J.F.F.F.J.F.F.",
"J.J.K.F.K.F.L.K.T.)._.`.(.9.;.&.7 7 @ @ 2 4 q / _ ^ _ _ G k S 3 3 3 j 4 / ^ ^ / ^ ^ q e 2 @ 2 6 9 &.8.`.8X'.).R.H.F.F.F.J.K.F.H.",
"J.J.J.J.J.J.J.L.K.Y.R.).{._./.8.*.r 7 2 2 e e q w w w _ ' ' ' ' ' @.9 y ) t w q q q e e 2 2 r ' *.8.q.lX'.[.Y.H.J.F.F.F.J.F.K.J.",
"J.J.J.J.J.J.F.J.J.J.K.Y.[. X'.(.5.*.r 2 @ 2 2 e 2 2 e r *.;.<.<.<.<.8.-.t r e 2 2 2 2 @ 2 7 &.-.q.q.`.(.).T.U.H.J.J.J.F.J.J.F.J.",
"J.J.J.J.F.K.F.K.J.F.K.U.Q.[._./.(.5.y 6 # + + + + + @ r =.9.9./.(.'.lXd.*.7 # + + + + O @ 9 =.(.zXnX_.R.Y.H.L.J.J.J.J.J.F.J.J.J.",
"J.F.K.J.K.F.L.F.F.J.J.U.T.Q.XX_.(.8.&.2 + +     + + # 8 <./._.XXvXvXxXlX=.7 # + +     + O 9 <.`.mXmX[.U.J.J.J.J.G.G.J.J.J.J.F.J."
};
