/* XPM */
static char *xpm_[] = {
/* columns rows colors chars-per-pixel */
"64 64 253 2 ",
"   c #0D190A",
".  c #17150C",
"X  c #14120C",
"o  c #22140C",
"O  c #281D14",
"+  c #192714",
"@  c #0E3B14",
"#  c #183B15",
"$  c #0E250E",
"%  c #27241A",
"&  c #382517",
"*  c #29391C",
"=  c #373529",
"-  c #393934",
";  c #2E3125",
":  c #183A21",
">  c #462B1A",
",  c #56321D",
"<  c #42321F",
"1  c #473527",
"2  c #563A26",
"3  c #443C35",
"4  c #613821",
"5  c #60361D",
"6  c #164A1B",
"7  c #16571C",
"8  c #0C4E1A",
"9  c #2A531E",
"0  c #1A651F",
"q  c #2D741E",
"w  c #27691E",
"e  c #1A4921",
"r  c #1B5A25",
"t  c #284A2A",
"y  c #364629",
"u  c #285726",
"i  c #375725",
"p  c #394838",
"a  c #2C5634",
"s  c #325338",
"d  c #196822",
"f  c #177926",
"g  c #0E7124",
"h  c #266924",
"j  c #376426",
"k  c #257924",
"l  c #387925",
"z  c #336436",
"x  c #717A1E",
"c  c #4A4926",
"v  c #5A462A",
"b  c #485725",
"n  c #585628",
"m  c #49443B",
"M  c #564737",
"N  c #515937",
"B  c #644B37",
"V  c #6B5536",
"C  c #775937",
"Z  c #6A522B",
"A  c #486826",
"S  c #467626",
"D  c #546B2F",
"F  c #6E6731",
"G  c #41401F",
"H  c #3B5542",
"J  c #3B4A49",
"K  c #484B44",
"L  c #475748",
"P  c #57554B",
"I  c #595A53",
"U  c #50504B",
"Y  c #675849",
"T  c #635A52",
"R  c #715B47",
"E  c #48664A",
"W  c #4D6651",
"Q  c #586658",
"!  c #5A775B",
"~  c #516F48",
"^  c #676559",
"/  c #786758",
"(  c #736F53",
")  c #58716F",
"_  c #686C65",
"`  c #687566",
"'  c #74786A",
"]  c #737574",
"[  c #815D36",
"{  c #98792A",
"}  c #896837",
"|  c #926C38",
" . c #987537",
".. c #85722E",
"X. c #A57D3E",
"o. c #886947",
"O. c #987447",
"+. c #8A7759",
"@. c #977754",
"#. c #8C6E4B",
"$. c #A37D4C",
"%. c #897C65",
"&. c #1B8329",
"*. c #198127",
"=. c #2B8B26",
"-. c #268C28",
";. c #288827",
":. c #348825",
">. c #2B9129",
",. c #2B9127",
"<. c #349528",
"1. c #318536",
"2. c #6F941D",
"3. c #77B51D",
"4. c #478924",
"5. c #469727",
"6. c #58932F",
"7. c #709133",
"8. c #4AA224",
"9. c #6AA825",
"0. c #72B420",
"q. c #509F1E",
"w. c #4B874C",
"e. c #469645",
"r. c #479846",
"t. c #489847",
"y. c #4A954A",
"u. c #4A9849",
"i. c #489448",
"p. c #568556",
"a. c #549B54",
"s. c #5B9C5B",
"d. c #589658",
"f. c #56924C",
"g. c #62985D",
"h. c #5BA15B",
"j. c #5D9D61",
"k. c #5E8672",
"l. c #688668",
"z. c #669966",
"x. c #759969",
"c. c #788978",
"v. c #699B73",
"b. c #779876",
"n. c #6E8872",
"m. c #5FA261",
"M. c #64A263",
"N. c #6BA46C",
"B. c #69A66B",
"V. c #6BA576",
"C. c #77A777",
"Z. c #74A469",
"A. c #8FAF19",
"S. c #AEB41A",
"D. c #99863A",
"F. c #8A8A33",
"G. c #A7882C",
"H. c #B59A2A",
"J. c #A78639",
"K. c #B79737",
"L. c #AB9234",
"P. c #8DAB2A",
"I. c #BDA527",
"U. c #B7A92E",
"Y. c #98921C",
"T. c #CDBC1E",
"R. c #C19D3D",
"E. c #C4AA2A",
"W. c #CCB425",
"Q. c #CDB527",
"!. c #D2BC24",
"~. c #D3B92B",
"^. c #C8A737",
"/. c #D8B836",
"(. c #D1AC3D",
"). c #9DC31C",
"_. c #ADC817",
"`. c #B1CA2F",
"'. c #D8C71C",
"]. c #CCCE17",
"[. c #E2D21A",
"{. c #E7DB16",
"}. c #E0CF1C",
"|. c #EBE30F",
" X c #D9C324",
".X c #D1C52C",
"XX c #E4CC27",
"oX c #E4CE25",
"OX c #D7E00F",
"+X c #978856",
"@X c #AA8545",
"#X c #BC9747",
"$X c #A98658",
"%X c #B6904F",
"&X c #9B8769",
"*X c #858679",
"=X c #869778",
"-X c #959272",
";X c #AA8B66",
":X c #B7956A",
">X c #A99475",
",X c #B89B74",
"<X c #AD9168",
"1X c #91A66F",
"2X c #ADA778",
"3X c #9DB458",
"4X c #C39B47",
"5X c #C49B59",
"6X c #CCA447",
"7X c #C39E69",
"8X c #C7A67B",
"9X c #CAA56D",
"0X c #A2C552",
"qX c #687794",
"wX c #596E91",
"eX c #769483",
"rX c #79A887",
"tX c #6BA792",
"yX c #7284A9",
"uX c #6FAFA9",
"iX c #55A4A2",
"pX c #879A87",
"aX c #92968C",
"sX c #AC9982",
"dX c #87A787",
"fX c #95AA95",
"gX c #8DAD90",
"hX c #A8A686",
"jX c #B9A787",
"kX c #B2AC95",
"lX c #8995B0",
"zX c #9AA4B0",
"xX c #B2B0B0",
"cX c #C8AC85",
"vX c #C9B48A",
"bX c #D4B58B",
"nX c #D9BC94",
"mX c #C3AE94",
"MX c #C5B9A9",
"NX c #B2C7A9",
"BX c #DEC299",
"VX c #E2C69D",
"CX c #D2C8B8",
"ZX c #E7CBA3",
"AX c #EDD2AB",
"SX c #F3DAB5",
"DX c #ECD7B7",
"FX c #FAE2BC",
"GX c #B6B9C1",
"HX c #BCC2C9",
"JX c #D7D4C8",
"KX c #F8E5C6",
"LX c #EAE1CB",
/* pixels */
"t.t.t.t.r.y.t.u.t.u.u.r.r.r.y.s.m.B.C.C.b.` p # @ 8 g g *.*.*.*.*.g &.&.*.g 8 8 : J k.tXV.B.z.z.p.w.i.r.r.t.t.t.u.t.u.u.u.t.t.t.",
"t.t.t.u.y.r.u.t.u.t.r.r.r.y.a.m.V.C.C.b.n._ s 6 e 7 g *.*.*.*.*.*.*.&.&.*.*.g 8 6 J ) tXtXV.b.x.j.p.i.e.r.r.t.t.u.t.u.u.i.t.t.t.",
"t.t.t.t.r.u.r.r.t.t.t.r.r.a.M.V.dXgXpXeX` L a e r d f -.>.>.>.>.-.>.>.>.-.f d r 8 a E ) v.rXgXdXC.j.i.1.e.r.t.r.t.t.u.u.u.t.t.t.",
"t.t.t.t.u.u.r.u.t.u.u.a.h.M.C.C.dXaXc.` L a r r d k ;.>.<.<.<.<.>.>.<.>.>.-.f d r r a E k.b.aXfXdXV.d.f.a.y.u.r.t.t.t.t.t.u.t.t.",
"t.t.t.t.u.u.r.r.r.u.d.j.B.C.dXdXeX` Q H t e g g &.-.>.<.<.<.<.<.<.<.<.>.<.>.&.f g 7 8 t N Q ' =XpXC.C.C.z.a.u.r.r.u.t.t.u.u.u.i.",
"t.t.t.u.u.u.r.r.r.a.s.V.dXgXdXb.! W s t 6 8 g *.&.-.-.>.>.>.>.>.>.>.>.>.>.-.&.f g g 7 7 u N T _ c.pXgXdXZ.h.a.u.t.u.t.t.t.u.r.r.",
"t.t.t.t.u.u.r.r.r.a.h.C.dXgXc.^ J a r d r g *.*.*.*.*.*.&.&.*.*.&.&.-.-.>.-.*.f g f g d 7 t s L _ c.aXgXC.m.a.u.u.r.t.t.u.t.t.t.",
"t.t.t.t.r.r.r.u.r.a.z.x.pXc.) L a r d g g f *.*.*.*.*.*.*.*.*.*.*.&.-.-.-.&.&.*.&.&.&.k d r e t L ` c.eXN.z.a.a.u.r.u.t.t.u.t.t.",
"u.r.r.r.r.e.r.r.u.d.z.l._ I H a r d f ;.;.-.>.>.,.>.>.>.=.=.,.:.,.=.,.<.<.>.>.>.>.>.>.>.;.h d u a H Q ) ` l.d.y.u.i.t.t.t.u.t.u.",
"u.u.r.r.e.r.e.r.y.d.l.! L t t r h k 1.<.<.5.8.8.8.8.8.8.q.5.5.5.<.5.5.5.8.8.8.5.<.5.5.<.<.=.k d r e p K Q ! w.u.r.r.t.t.u.t.u.t.",
"r.u.r.r.r.r.r.e.u.w.W L - * e d :.4.5.5.9.0.0.0.3.3.3.0.9.9.6.6.6.7.9.0.0.0.0.0.7.6.6.6.5.5.1.k h e e t H W w.w.i.r.t.t.u.t.t.u.",
"u.r.r.r.r.a.h.h.d.p.W m : # 7 h 5.6.6.2.P.P.)._._._._.A.A.P.F.7.7.7.P.A.).).).A.P.P.F.f.7.6.5.l h 7 # t H W p.d.s.d.y.a.u.t.t.t.",
"u.r.r.u.h.M.Z.C.C.n.Q H * * u l 6.7.7.F.U.I.].OXOXOX]._.I.H.G.X.@XL.U.S.].].]._.U.D.D.F.F.7.7.S l u 6 t H Q b.b.-Xx.z.h.u.t.t.t.",
"u.u.r.a.m.N.1XrXpXn.W s t u j S 7.7.+XD.H.T.OX|.|.OX}. XW.E.E.G.@XL.E.!.[.{.OX}.!.U.K.J.@XD.7.7.D j u a H W n.pX=X=XN.j.a.u.u.u.",
"a.y.a.a.m.N.b.c.` E a u u j D F ..@XJ.K.I.'.{.|.{.'.'.!.!.!.W.W.U.K.Q.!.[.{.|.{.[. XE.K.J.@XF.F.F D A u u s W ! l.x.x.z.h.h.h.h.",
"x.Z.z.Z.C.=Xb.' P p y u j S F  .D.L.K.U.W. X{.{.[. X!.!.!.!.'.'.^.E.Q. X[.{.{.{.[.'.W.E.L.@XJ.D...F A j u u p W ( *X=XC.N.Z.Z.Z.",
"2X1XhXhXhXhX-X' M 1 = 1 b D F J.K.^.E.~. XXXoXoXXX X X!.!.!.!.!.Q.~. XXXoXoXXXXX X X XW.I.R.R.X. .F D A 9 y y N #.&XhXkXhXhXhX2X",
"2X,X,XcXkXcX>X+.R 2 4 2 Z C D.K.^.~. X'.oXXXXXXXXX}.'.!.!.W.Q.!. X'.XXoXXX/././.~.Q.!. XW.I.E.G.D.F F D n b n F @.<X,XmXvX2X,X2X",
"@X$X<X,X8X8X8X<X@.o.[ [ [  .L.^..XoX[.[.[.oXXXXX[.[.'.T.W.E.R.E.}.{.{.oXXX(.(.6XR.(.~. XT.W.E.I.G.{ ..F C C o.@.;X,XcXcX,X:X$X+X",
"|  .@X:X8X8XbX8X7X$.O.O. .G.R.!.oX[.[.}.[.oXXXXX[.'.!.E.I.E.R.E.}.|.[.XX/.(.4X5X4X4X^.!.W.!.!.W.E.G.{  .O.$.$X:XcXcXcX8X:X$X .| ",
"} O.$.7XbXBXVXVXnXcX<X$XX.R.W.'.[.}.!.!. X'.[.oX'.!.^.R.K.G.K.H.'.[.'.!.^.R.4X5X7X9X6X(.^.Q.!.'.T.E.H.@X$X:XcXnXBXZXnXvX,X$XO.} ",
"@.@.>X,XvXnXBXBXnXbX7X;XK.G.W.T. X X~.~.~. X[.{.}.!.(.^.K.K.H.E.W.W.W.E.R.5X5X9X8X8X5X4XR.^.~.!.T.W.R.#X:X7XbXBXVXBXbXmX,X,X+X@.",
"sXkXjXsX,X,X9X8XbXcX:X$. .{ H.E.^.(.6X(./.XX{.|.|.[.XX/.(.R.R.R.H.H.H.R.5X5X8XbXnXbX8X5X4XR.E.(.E.E.K.%X5X8XvXnXcXcX,X,XcXmXkXkX",
"zXkXkXhX>X;X<X2XjXjX:X$.| { { { @X4X6X6X/.XX{.|.|.{.oX/./.(.R.R.X.X.X.$.7XcXBXVXZXBXbX9X5XR.R.R.E.R.K.#X:X7XjXjX,X>X>X>XjXMXMXCX",
"dXdXgX2X-X>X=XaXkXkX<X@X{ { { { X.#X4X6X/.XXoXoXoXoXXX/.(.R.X.X.X.X.$X7XcXnXZXSXSXZXbX9X5X5X4X%X#XK.R.#X3XkXkXfXaXaXaXsXkXxXCXJX",
"B.N.C.C.=X=XdXtXuXgX1XU.H.Y.{ {  .X.%XR.(./.XXXXXX/.(.R.4XX.X.X.$.4X7X8XbXZXAXSXAXZXnXcX5X%X%X@X%X#XU.U.0X0XgXuXlXgXdXpXdXfXNXNX",
"a.s.h.B.C.rXiXiXiXuX1X`._.T.Y.{ {  .X.R.6X(.6X6XR.R.J.X.O.X.O.$.5X7XcXnXVXZXAXAXZXnXbXmX:X$.O.O.G.H..X].0X3XtXiXuXiXV.N.M.M.B.B.",
"u.t.t.h.M.rXiXiXiXtXC.`.].T.I.G.| } |  .X.@X4X4X4XX.X. .| O.$.;X8XbXBXZXZXVXVXbXcXcXsX@.@.o.o.o.G.H.].`.`.3XiXiXiXtXV.j.a.u.5.r.",
"r.r.t.a.g.v.k.eXk.y.F.S.].].I.G.} [ 4 R [ o.$.$.X.| | | O.$.:XcXnXZXZXZXVXnXbX7X@.@.o.Y B B V } G.I.]._._.P.! ) k.v.v.s.u.e.e.e.",
"r.r.t.a.s.l.) Q H N 2.S.S.].I.G.} Z B B Y R o.@.| [ [ | @.7XbXnXZXAXZXVXbX8X:X@.@.R T U M M C } G.I.T.].Y.Y.N L ` l.l.s.a.e.r.r.",
"r.r.r.y.a.j.! L J c { H.E.E.H.G.| o./ _ _ wXo.o.R R [ O.$.8XnXAXAXAXZXbXcX,X@.#.o.T _ wX_ / #.O.G.H.I.I.H...c p W p.s.s.u.r.r.r.",
"r.u.r.y.h.s.l.Q m N ..G.L.H.{  .#.@.%.aXqXqX] o.T R o.@.sXbXZXAXSXAXBXcX7X@./ ^ / wXwXqXaX-X+X#. .G.H.G.{ F m K Q ` s.h.a.r.r.r.",
"r.r.r.a.m.z.n.` T Y C } | | } R +.&XkXGXGXlXqXwX_ _ +X>X2XBXAXFXSXSXVXcX:X@.' ) wXqXlXzXGXzX&X+.[ [ |  .} C P Q _ n.l.s.y.r.r.r.",
"r.r.e.u.h.V.b.b.%.+.R R C Z 4 B T *XkXMXGXzXqXqXqXeXaXkXBXZXFXFXSXSXDXnXmXsXeXwXqXqXzXHXMXxX*X/ B 4 Z [ C ( ' ] c.c.x.s.a.i.r.r.",
"r.r.r.u.h.Z.1XgXfX=X' Y 3 > & = M +.sXMXGXlXyXqXyXzXGXCXDXKXFXFXKXKXSXDXJXMXzXlXqXyXzXxXMXjX+.M & & > M T ' b.dXaXdXC.M.a.r.t.t.",
"r.r.e.r.h.B.C.C.dXpXn.I U 1 O O 1 Y %.sXxXxXlXlXGXHXJXLXLXKXKXKXKXKXKXKXLXJXHXzXlXlXxXkXsX%.Y 1 % O = U ! n.C.=XC.C.M.s.y.r.t.t.",
"r.r.r.u.u.y.s.h.h.z.z.l._ P 1 & & M %.sXjXmXxXxXHXJXKXKXKXKXKXKXKXKXKXKXLXLXJXCXxXxXmXcX<X+.M = = 3 I ` l.l.z.m.h.a.a.a.t.t.t.t.",
"r.u.r.r.r.e.r.r.u.s.z.b.c._ K = - 3 / @.:X8XmXmXCXDXDXKXFXFXKXKXKXKXKXKXKXKXDXCXMXmX8X<X@.C c = = m _ ] b.v.s.y.t.r.r.t.t.t.t.t.",
"t.u.t.r.r.r.i.r.y.j.b.dXeXk.J - ; c Y o.$.:X8XcXMXZXAXDXSXSXSXSXSXSXSXSXSXAXZXnXmX2X:X$.o.V c * - L _ eXpXb.s.y.t.r.t.t.t.t.t.t.",
"u.t.t.t.r.i.r.u.a.s.n.b.iXk.J a t c 4 [ | @.$.:XcXbXnXVXVXVXVXVXBXZXZXZXZXnXbXcX:X;X@.#.C Z N i a H Q ] c.x.s.a.y.t.u.t.t.t.t.t.",
"r.r.r.r.u.y.u.a.d.p.) Q L J a a h i N Z Z C } #.&X,XjXvXvXvXvXvXcXbXvXvXjX,X:X&X#.o.C V Z D P N z a p U I ! p.f.a.a.a.y.u.e.r.r.",
"u.u.a.a.j.z.s.d.p.W H J J H E ~ ~ ~ N N n n n R ( +X3X-X3X1X-X1X-X1X<X1X-X+X+XF F n v n n D p.l.~ E p - p L E ! g.z.M.m.j.a.a.y.",
"h.h.V.tXdXdXb.l.Q L J J L ) n.rXC.l.D A u a j A S 6.6.7.f.f.f.f.f.f.f.f.d.w.S S q i i b N ~ x.dXrX' I 3 = 3 K ^ ' =X=XrXtXB.j.a.",
"m.B.tXdXgXaXb.` U 3 J K Q ] eXaXeXc.~ A u r h h k :.4.:.l 1.l 1.l ;.1.1.1.1.1.d d 0 9 i A D c.pXaX*XT 3 1 = 3 P / &XgXfXrXtXB.m.",
"V.C.fXfXfXpX_ P m 3 1 3 P ^ ' ' l.! N b i 9 w f k &.k q f ;.&.*.f f f ;.f &.f f f 0 9 b b D ( ' ' / Y 3 1 > 1 2 B / pXfXfXgXV.B.",
"C.C.fXaX*X_ P m 2 2 v M B Y I I P L b c b 9 h d f f f *.&.&.&.-.&.&.*.*.f f f f f h 9 b n n N N Y Y B B 4 5 4 2 2 U ^ b.gXgXC.V.",
"B.C.=Xc._ K 3 1 B V C R C B M m = y G b n b j h d f q :.=.=.,.,.<.4.1.=.k k h k h j b n c G y & = 2 B C [ [ [ Z 1 1 M ^ V.V.B.m.",
"B.B.v.' I m 1 2 C #.@.@.O.R v 1 * * i b n A A j j q S 4.4.q.q.9.9.9.6.4.l S j A A A A A b i 6 * ; v C o.O.O.O.R 2 1 m I l.B.B.m.",
"B.Z.v.l.Q M M V O.;X:X,X<X+.F z 9 7 w l A A n n n n x x Y.A.A._._._.A.Y.x n n v n n A S l q 9 6 i F +X>X,X:X;X@.B M M Q ' b.M.B.",
"M.N.C.n.` T Y R +.&X>X>X&X%.N i 9 7 h k S S n Z n n x x 2.A._.]._.S.A.2.x x n n Z n S l :.q 0 9 i N +.&X>X>X&X+.R P Q ` c.b.B.M.",
"z.z.C.b.b.` ^ ^ T ^ / ^ T P m * # 8 d f :.4.S A A S A S 2.2.3.A.A.3.2.2.x S j A S 2.4.:.q 0 6 6 * = P Y ^ / ^ ^ ^ _ ' n.b.Z.M.m.",
"g.g.M.N.b.n.l.Q T I P U U - ; + $ 8 7 f k :.l l :.l :.S 4.4.q.q.q.q.5.4.l l l l :.4.:.;.0 7 @ $ + ; m K U P I ^ _ ' c.v.Z.M.h.h.",
"f.f.f.h.M.Z.eXeX] / ^ T P m ; .   $ 8 7 0 h ;.:.;.:.;.:.:.:.,.<.:.,.:.=.;.;.;.;.:.=.q 0 8 @ $   + ; m I I _ ^ l.*X=Xb.M.h.a.a.u.",
"t.r.8.t.h.B.V.b.*X%.qX] _ I - % X   $ @ 8 0 k ;.;.;.=.=.=.=.=.,.,.=.,.,.,.=.;.;.;.q d 8 @ $     % - I _ ] qXc.x.=X=XB.h.u.r.r.r.",
"t.t.6.u.u.h.s.z.C.pXfXzXlXpXI - o X   $ @ 8 0 d k l :.:.:.:.:.,.,.:.,.<.=.=.=.q h 7 8 @ $   X . ; U ] lXzXzX-X-Xx.h.h.a.u.r.r.u.",
"t.t.u.u.u.a.a.s.z.rXzXzXaX%.T 3 & o o . + # 8 7 0 w q q q q q q q q ;.q q q w 9 e 6 # $ . . . O 3 I ] aXzXfXaX=Xh.f.a.u.u.r.u.r.",
"u.t.t.t.y.y.u.a.d.l.] ] _ I M 1 > & & & O . $ $ # # # # # 6 # 6 # # # 6 # # # $ + . O % & & > > 1 M P _ wXeXl.d.6.e.u.u.r.u.r.u.",
"r.u.t.t.t.r.r.y.w.p.! I m 1 1 2 , , , > & O . X   . $ $ % : ; = * * % + $       o o O & > > , , 1 1 - K W ! w.i.e.e.e.r.u.r.u.r.",
"y.u.t.u.u.t.t.u.u.w.Q m - & & , 5 4 , , > & o . X   $ * = L Q ` ! Q m - + .   . o o & > , 2 4 5 , > ; - K E w.u.e.e.e.e.r.r.u.r.",
"u.t.t.u.t.u.t.t.y.w.W K - ; & , 5 4 2 , , > & O . . + p P ' b.dXpXc.' P p * . . o O & , , 2 4 5 , > & - L W ~ y.e.e.e.e.u.r.r.u.",
"t.t.t.t.t.t.t.t.u.w.! Q m = 1 2 , , , , , > & % ; ; - I c.pXfXgXfXgXaXc.^ m = % & & > > , , , , , 1 1 U Q p.w.1.i.r.r.u.r.i.r.u.",
"t.t.t.t.t.t.t.t.y.d.l.` ^ P M 1 > & & > & & & = - K I ] =XgXgXgXrXdXgX=Xl.^ m 1 & & & & & & > > 1 M T _ n.z.d.e.e.i.u.r.u.u.u.r.",
"t.t.t.t.t.t.t.u.y.s.v.b.pX] P 3 o X X X o o O = K Q ` n.n.v.B.m.B.B.B.z.z.! P m ; O o o o o o O 3 T ] pXC.B.a.u.r.r.r.u.r.r.t.u.",
"t.t.t.t.t.t.t.t.a.h.Z.rXaXaXT 3 X X X X X X + ; L _ ] c.v.j.a.u.a.a.h.m.z.l.Q K ; o X X X X X o 3 T aXaXrXB.s.a.u.r.u.u.r.r.u.t."
};
