/* XPM */
static char *xpm_[] = {
/* columns rows colors chars-per-pixel */
"64 64 256 2 ",
"   c #090A05",
".  c #0A180A",
"X  c #1B140D",
"o  c #15170D",
"O  c #191B13",
"+  c #0B1712",
"@  c #261C13",
"#  c #2B1A11",
"$  c #0A2C0D",
"%  c #0A240C",
"&  c #0A340E",
"*  c #162714",
"=  c #0B3C12",
"-  c #0C3411",
";  c #173617",
":  c #112711",
">  c #282518",
",  c #372619",
"<  c #243518",
"1  c #34371C",
"2  c #20230C",
"3  c #123227",
"4  c #282D25",
"5  c #382C24",
"6  c #283725",
"7  c #373829",
"8  c #393A34",
"9  c #283C32",
"0  c #0C1F21",
"q  c #462919",
"w  c #46381A",
"e  c #58321D",
"r  c #552F1C",
"t  c #473729",
"y  c #563825",
"u  c #453B34",
"i  c #483327",
"p  c #633821",
"a  c #60361F",
"s  c #0B4313",
"d  c #0C4C16",
"f  c #0E4C19",
"g  c #164817",
"h  c #0C5419",
"j  c #0D5C1B",
"k  c #0C5317",
"l  c #135B1A",
"z  c #175718",
"x  c #26461C",
"c  c #2B531B",
"v  c #0E631E",
"b  c #12631D",
"n  c #1B631B",
"m  c #1B6B1D",
"M  c #1F731E",
"N  c #226A1C",
"B  c #28741E",
"V  c #327D1E",
"C  c #1E4720",
"Z  c #274A23",
"A  c #285626",
"S  c #384536",
"D  c #395735",
"F  c #314B2B",
"G  c #0E6B21",
"H  c #0E6720",
"J  c #176922",
"K  c #0E7325",
"L  c #0E7B28",
"P  c #0F7927",
"I  c #127325",
"U  c #137A28",
"Y  c #256727",
"T  c #396A28",
"R  c #2C7C21",
"E  c #277524",
"W  c #357524",
"Q  c #376C37",
"!  c #327338",
"~  c #4D4C13",
"^  c #6B551C",
"/  c #79790B",
"(  c #46443A",
")  c #584839",
"_  c #51522B",
"`  c #77572B",
"'  c #775938",
"]  c #674E30",
"[  c #486927",
"{  c #546629",
"}  c #4B732F",
"|  c #6F6C32",
" . c #507516",
".. c #374B48",
"X. c #215A56",
"o. c #494C44",
"O. c #564B43",
"+. c #4A5647",
"@. c #56554A",
"#. c #5B5A56",
"$. c #675747",
"%. c #635A52",
"&. c #586656",
"*. c #50704E",
"=. c #68675A",
"-. c #766B51",
";. c #696B64",
":. c #697566",
">. c #767767",
",. c #777A75",
"<. c #6E7270",
"1. c #5B7067",
"2. c #453F44",
"3. c #90761A",
"4. c #9A7437",
"5. c #8F6E2E",
"6. c #966C38",
"7. c #877559",
"8. c #987C59",
"9. c #8C6E4A",
"0. c #A37B46",
"q. c #A77F52",
"w. c #867A65",
"e. c #8B7D6D",
"r. c #1A8328",
"t. c #278827",
"y. c #388823",
"u. c #3C9D29",
"i. c #379627",
"p. c #349233",
"a. c #3EA229",
"s. c #35821F",
"d. c #6DA91C",
"f. c #499426",
"g. c #4E8D25",
"h. c #6C9127",
"j. c #41A429",
"k. c #6FA425",
"l. c #60971C",
"z. c #389140",
"x. c #459746",
"c. c #479847",
"v. c #469649",
"b. c #499649",
"n. c #499849",
"m. c #479848",
"M. c #588758",
"N. c #4C9852",
"B. c #539D54",
"V. c #589B5A",
"C. c #4A8549",
"Z. c #6A9157",
"A. c #5BA15C",
"S. c #58A057",
"D. c #5C9A63",
"F. c #688868",
"G. c #669966",
"H. c #798877",
"J. c #799778",
"K. c #73906D",
"L. c #5EA263",
"P. c #63A364",
"I. c #6BA56B",
"U. c #6AA76C",
"Y. c #75A66C",
"T. c #6DA873",
"R. c #73A472",
"E. c #72AB73",
"W. c #78A97A",
"Q. c #7BB17B",
"!. c #62A55F",
"~. c #928D1E",
"^. c #AF9719",
"/. c #8FAC1C",
"(. c #B4AB13",
"). c #98912E",
"_. c #A98739",
"`. c #B89738",
"'. c #AF942E",
"]. c #89A72A",
"[. c #B6A62D",
"{. c #C7B617",
"}. c #C7BA0D",
"|. c #C29E3C",
" X c #C5AB2C",
".X c #CBB428",
"XX c #D3BD28",
"oX c #C5A736",
"OX c #D4BA37",
"+X c #CCB538",
"@X c #B9D111",
"#X c #92C416",
"$X c #D8CA1B",
"%X c #D2CF11",
"&X c #E5D71A",
"*X c #E0CF1E",
"=X c #D8C425",
"-X c #DAC732",
";X c #E4D329",
":X c #ECE122",
">X c #BB9546",
",X c #AF894C",
"<X c #878877",
"1X c #928E6F",
"2X c #BA9C76",
"3X c #AD926B",
"4X c #89AE79",
"5X c #B3A977",
"6X c #AB9A4D",
"7X c #C29B48",
"8X c #CCAF4D",
"9X c #C5A77B",
"0X c #CDB16C",
"qX c #DBC54B",
"wX c #E4D64E",
"eX c #D8CB76",
"rX c #E3D469",
"tX c #327A86",
"yX c #6C7590",
"uX c #5F7299",
"iX c #748C93",
"pX c #7DA884",
"aX c #7FB480",
"sX c #6C8BA6",
"dX c #5AA2AB",
"fX c #34839E",
"gX c #868A84",
"hX c #879A86",
"jX c #94968B",
"kX c #86A886",
"lX c #87B387",
"zX c #98A796",
"xX c #95B695",
"cX c #93B28A",
"vX c #AFB18C",
"bX c #95ABA8",
"nX c #A8B7A9",
"mX c #B0B3AC",
"MX c #9B9C96",
"NX c #C5AA85",
"BX c #C9B48B",
"VX c #D4B88A",
"CX c #D4B994",
"ZX c #C1BEAF",
"AX c #B6C497",
"SX c #B6C4B4",
"DX c #9CC0A7",
"FX c #DBC399",
"GX c #D0C78E",
"HX c #E3D091",
"JX c #D1CFAC",
"KX c #E9D5AB",
"LX c #E8DAB3",
"PX c #E6CFA6",
"IX c #F0E0B6",
"UX c #CACAC0",
/* pixels */
"m.m.m.n.x.x.x.x.x.b.A.P.U.E.Q.lXDXaXpXV.z.p.i.i.a.a.a.a.j.j.j.u.y.V n k l b m B [ { ] ] ` 5.0.>X3X4X4X4XE.E.Q.E.U.P.L.B.m.m.m.m.",
"m.m.c.n.b.x.x.x.b.B.P.U.E.Q.aXxXaXpXL.N.z.p.i.u.a.a.a.a.j.j.j.u.y.V n z l b m B } { ^ 5.3.4.>X7X5X5X5XcXcXcXcX4X4XE.L.B.n.m.c.m.",
"c.c.c.n.n.b.n.n.N.A.E.aXaXaXaXaXaXpXL.z.p.i.i.u.a.a.a.a.a.a.u.i.y.t.n k z n B s.g.~.~.).^.[.oX8XrXeXeXGXGXAXAXvXDXlXQ.L.n.x.c.c.",
"c.c.c.n.N.b.B.B.A.P.T.E.Q.T.T.T.L.N.v.p.p.a.u.a.a.a.a.a.a.a.u.i.y.B n z n N s.f.k./.(.{.$X=X=X-XwXrXeXHXVXGXGXGXAXvXlXE.L.S.B.n.",
"c.c.x.n.B.A.I.E.T.T.D.D.N.N.z.z.u.p.u.u.u.a.a.j.a.a.a.a.a.a.a.i.t.B n n B s.f.k./.{.$X$X*X*X&X*X-XqX8X8X8X0X0X0X0XvXvXzXlXE.P.A.",
"c.c.n.n.B.!.Y.R.T.D.N.z.t.r.t.t.t.t.i.u.a.j.j.j.a.a.a.a.a.u.i.t.B N N E s.f.k./.[.XX;X*X*X*X*X$X+X[.>X>XoX+X+X8X0X0XCXmXxXcXE.U.",
"c.m.B.B.V.!.G.Z.M.*.r.r.r.r.r.p.i.u.a.a.a.a.j.j.a.a.a.a.i.t.t.M N B W y.f.k.].[.OXOXXXOXXX.X X|.`.'.`.`. X.XXXXX-XqXeXVXvXvX4XE.",
"n.B.A.L.G.V.M.C.! ! L r.r.r.r.t.i.u.u.a.a.a.j.j.a.a.a.a.t.t.B m n m t.p.h.k.[.oXOXOXOXOXOX|.|._.,X_._.`.oX.X$X$X=X-X0XGX0XBX4X4X",
"L.L.T.J.T.F.*.Q Q J I K P L r.r.t.i.i.a.a.a.a.a.a.a.a.u.y.s.m n b m V f.h.k.6X8X8X8X-X-XOXoX|.0.0.|.'.|.oX.X{.XXXXOX8X0X0X9X5X5X",
"L.D.T.pXF.*.! Y J I I P L L L r.r.t.t.u.u.u.u.a.u.u.u.i.y.V N n m B y.f.h.).6X[.oXqX-X=XXXoX0.|.7X0.|.|.|.oX.X.X=X=X-X8X8X0X0X2X",
"D.D.D.M.*.! Y v G K P L L L U U r.r.t.t.i.s.i.s.i.y.i.y.s.B N N E y.f.h.]./.'.`.[.=X&X&X=X+X7X7X7X7X7X7X7X|.oX.X$X&X&X=X X'._.0.",
"U.G.D.*.! Y l j I K P L L L U P K K r.t.r.s.s.r.s.V B B V B B B i.l.d././.[.'.'.[.$X&X&X*XOX7X7X7Xq.0.7X,X|.oX.X*X&X&X$X(.~.5.5.",
"cXpXK.M.Q Y l v K L L L L L L P K K M M n n n n n n z z N N V y.l.d.@X@X@X[.`.`. X=X&X:X;X-X8X0Xq.0.0.4._.`.oXXX&X&X$X%X^.~.5.] ",
"xXkXG.*.Q Y J J I L L L L L L L K M H l n k l l k k s z z N B f.d.#X@X%X%X=X[.`.[.XX=X*X-XqX0X0X3Xq.0.4.0._.|. X=X=X=X.X[._.5.9.",
"pXJ.*.! E I I I P U L L L P L L K K H v l b b l l k z z z n B y.d.#X@X%X%X.X[.'.`.oX.XOX8X8XeXVX9X2Xq.0.0.0._._.|.+X8X8X>X0X5X3X",
"1.C.T E I K P U U L P P P P P P K K G H H H G b l z z z l n B y.d.#X@X%X$X.X(.'.`.`.|.oX8X0X0XVXVXNX,Xq.8.0.6.6.0.7X8X0X9XvXvXvX",
"Y J J b I P P U L P K K G K G K G K K K K K v G v b j l z N E } l./.%X%X$XXX.XoX7X7X7X7X0X9XVXCXVXVX9Xq.8.9.' ' 0.q.2X9XNXvX4X4X",
"d f h v I I P U L K G H H v v v H H G P K K K v b v v b N T T } h.~.(.{.XXXXXXOX8X8X8X0X9XVXCXFXFXVXNX3X9.' p p 8.3XNXvXvX4XY.!.",
"s k h j G G P P P K v k k k d k h v v v v v v v l b b Y T [ } | 5.).^. X.XXX*X*XqXqX0X0XVXVXCXCXCXCXNX8.9.2.y O.e.MXMXMXpXG.V.B.",
"= s k j H I I I G v k s = = = s d k h v v v j j l l b Y T { | | 6.9.4._. X$X&X:XwXrXVXVXVXNXNXNXNXNXq.9.$.y 2.$.e.MXMXpXP.V.N.j.",
"$ & s h H I I H j d = & $ & $ & - s d h j l b b G H l l W [ | | 6.6.6._. X=X&X:X;XrXeXVX2X3Xe.7.w.9.' $.p 2.2.2.<.J.W.I.V.n.m.v.",
". % & f j H H j d = & % % % $ $ - s g z n J Y E Y E A N T { { | 5.6.4._.oX=X&X;XwXrXeXVXNX1X-.$.O.O.p p y 2.2.2.:.J.J.R.L.S.B.B.",
". . - s h j j h s & % . . . % $ = x N [ *.g.C.C.} } T T [ _ ] ` ` 6.0.>XoXOX;X;XwXrXHXVXNX1X-.$.O.O.O.2.2.2.O.%.<.<XhXlXlXQ.I.A.",
"  . % = d f f d = & % . . % % $ g c } -.Z.Y.Y.4X4XZ.Z.| | ` ] ` 5.5.,X>X8XOXOXqXrXrXHXPXvXvXw.=.%.#.#.#.%.%.%.%.;.<.gXkXzXlXQ.U.",
"    % & s d d s = & : : : : * * g Q >.1XvXBXCXGXGXvXvX3X1X9.` ` 5.6.,X7X7X7XoX8X8XVXKXKXFXvXkXiXyXyXyXyXyXe.e.7.#.@.;.,.hXpXT.T.",
"    % & s s s = = 3 6 9 8 7 4 6 Z _ Z.5XCXFXPXKXLXLXFXNX3X9.' ] 5.6.`.oXoX`._.>X2XVXPXIXJXAXzXpXyXuXuXsXyXgX1Xw.O.( O.;.K.pXT.T.",
"    $ = s f f = 3 9 +.=.-.=.o.8 < ( -.3XvXVXPXKXLXLXKXGX2X8.$.] ^ 3.'. X X X4._.3XVXPXPXJXAXxXpXsXuXuXsXgXjX3Xe.] u ) %.<.J.T.T.",
"  . $ = s s s = 3 9 1.gXjX<X=.o.1 1 ] 9.,X9XVXFXKXLXKXJXvXe.%.) ^ 3.^.{.{.(.4.4.q.NXFXPXJXJXxXzXbXsXuXuXgXe.e.7.$.) @.=.H.J.R.I.",
"    $ = s s = $ * ..yXbXmXMX,.#.7 , w ] | ,X3XVXFXJXJXSXsXiX#.u ~ / ^.}.(.^.3.4.,XNXFXKXLXUXSXmXbXsXsXyXyXw.7.7.$.%.>.<XhXhXR.U.",
"  . - = = = $ : 4 o.gXmXmXMXgX#.7 2 , w _ | 1X3XvXnXDXbXsXtX..8 ~ 3.^.}.}.^.3.4.q.9XFXIXIXIXJXZXmXmXMXyX<.;.=.-.=.>.<X1XkXkXE.P.",
"% : $ = = = * * 4 o.jXSXUXmXgX=.7 @ @ , i _ ' -.1XpXdXdXfXtX3 9 ~ ~.(.}.}.^.3.4.q.2XFXKXIXIXLXUXZXCXMXe.;.%.#.=.,.J.4XR.R.U.A.A.",
"S F C 3 ; ; 6 S o.;.MXSXUXZXMX7._ ~ 1 w y y ] ] %.1.tXtXtXX.0 3 ~ / }.$X}.{.3.4.0.2XVXPXLXIXPXFXCXNXq.e.=.=.;.:.J.4XW.U.L.B.S.B.",
"G.1.*.+.F D ..&.U.lXDXJXJXLXGX8X).3.3.5.` ` ] t 7 S 9 X.X.3 0 2 ~ h.(.%X}.(.3.3.0.,XNXCXPXPXFXvX3Xw.-.=.;.,.gXhXcXkXT.L.S.n.n.n.",
"pXR.:.&.*.&.:.F.aXaXDXDXJXJXrXrX+X X^.).5.` w 1 * 0 0 0 0 : + 2 ~ 3.(.}.}.^.3.5.6.8.3XvXNXNXvX3X7.=.=.;.H.<XkXkXlXW.P.V.n.c.n.n.",
"G.G.K.H.iX<XhXhXaXQ.Q.Q.DXAXrXrXwXqX[._.| { F < : $ % % % + . 2 w 3.^.}.(.~.3.p ` 9.7.1X,X1X1X7.>.<.,.e.hXhXJ.G.L.V.B.N.n.c.n.n.",
"D.G.Y.kXzXzXxXlXQ.!.S.S.Q.aXAXeXeX0X6X5._ ~ ; - & & & & & $ % 2 w / 3.^.~.3.^ a _ _ ) { $.$.' %.<.,.jXMXbXcXI.B.v.v.v.n.c.c.n.n.",
"V.G.R.kXlXxXxXaXU.S.B.n.A.U.4XcXAX5X1X_ 7 ; : $ = k k s = & $ 2 w ^ 3.4.5.` ~ 1 < x g Z c F S @.7.jXmXmXSXbXY.B.n.m.m.m.n.c.n.c.",
"V.V.I.Y.Q.Q.Q.T.S.n.n.n.m.S.U.Q.4X1X;.o.6 0 - = f h h f g ; 2 < w ^ ` ` ] w < ; s s s k f g ; F =.e.MXnXSXxXY.B.N.m.m.n.c.n.c.n.",
"N.N.B.B.S.S.S.S.n.n.n.n.c.B.L.R.kX<X#.S 4 : - s k k f ; ; < , w w r w w 7 x g l j j j v b l z Z D *.;.e.jX4XG.B.B.n.n.n.c.c.n.c.",
"b.c.c.c.c.c.c.n.n.c.n.c.c.m.A.I.hXH.#...4 ; s d k d = - * > 1 i w 1 1 2 ; = d j v G H G G m b n A _ @.-.7.1XK.G.P.P.S.n.n.c.c.c.",
"x.x.c.x.x.c.c.c.m.m.n.c.c.n.A.U.pXH.&...4 3 f k k k & % : 2 6 F F x < ; = = f h H G G I U U B B W [ { -.-.F.<XkXkXW.I.A.n.x.c.c.",
"c.x.x.c.c.c.c.c.m.m.n.n.B.S.P.T.4XJ.#.8 3 3 f h l g $ % : ; Z A D A Z g ; g = s h H G U U E B s.g.h.h./ | -.>.H.hXkXT.L.N.x.c.c.",
"c.c.c.c.c.c.c.c.m.n.n.B.L.U.E.Q.pXH.+.8 4 ; g f f s $ + 0 3 A Q ! ! ! Q F 3 : $ = k H J B R s.s.l.d.~.h./ { ) &.H.J.T.L.n.x.x.c.",
"c.c.c.c.c.c.c.c.m.n.S.P.T.pXpXpXK.&.o.5 , 1 < ; g ; . O 3 F ..z.N.N.N.C.Q S * O $ ; A A T [ W g.d.d./.h. ._ F ( 1.G.D.D.n.x.c.c.",
"c.c.c.c.c.c.c.c.c.n.A.I.kXjXhXH.&.( t , i , 1 < < * X * 8 ..*.*.D.pXU.Y.:.+.5 * @ > 1 F ~ { { { g.g.g. .c c w ( 1.G.D.A.n.x.c.c.",
"c.c.c.c.c.c.c.c.c.B.A.E.kXzXgX;.o.4 , q 5 i , , > > X > S +.#.:.D.pXW.1XF.&.8 4 > > w ~ ^ { { { } f.V B c x 6 ( =.K.I.A.N.m.x.c.",
"c.b.c.c.c.c.c.c.c.n.A.I.lXhX<X#.4 O > 1 7 w 7 1 > > o @ 7 O.@.;.<.J.<X<X=.O.7 @ > 1 _ [ { [ { }  .g.B n z ; 6 ( >.K.I.A.N.v.x.m.",
"b.c.c.c.c.c.c.c.c.B.A.U.kXkXiX#.4 O < x x F F 5 > > X X 5 u O.%.1.;.-.%.O.u 4 @ < x T } } } g.} g.s.B n g C Z ) K.1XU.L.v.z.x.c.",
"b.c.c.c.c.c.c.c.c.n.A.E.lXzXhX;.u 6 C C A A F 1 1 , X X # , i y O.y p y i , @ O ; c B f.f.f.f.i.y.y.V B F D o.&.H.J.I.V.n.c.x.x.",
"c.b.c.c.n.c.n.c.c.B.S.Y.lXxXzX<X1.+.F A A Z A F 1 1 2 X 2 # , q a y e r , # X O - z N t.i.u.u.i.t.V T T } &.&.<.J.R.I.A.n.c.x.x.",
"c.c.b.c.c.n.b.b.c.n.B.P.aXxXnXzXhX<.*.A C f z c c x * : X # q r p p a r q # X + - g n E t.i.i.y.B A F _ &.F.J.kXkXQ.I.V.n.x.x.c.",
"c.c.c.n.c.c.b.b.c.b.B.A.E.4XcXcXcXhX:.+.D A A c n z - o @ , r ] ' 9.' ] y q @ O : = f b Y W W E T Q +.;.H.kXkXaXE.U.V.B.n.x.c.c.",
"n.c.n.c.c.c.n.c.c.n.n.n.B.A.!.E.Q.W.<X,.:.&.[ A g & % o > t ] 9.8.q.q.7.$.y 5 O . $ $ s g Z A D +.*.H.gXkXlXE.P.V.B.N.n.c.c.c.c.",
"c.n.c.n.c.c.c.c.c.n.n.x.x.x.m.S.P.I.W.hXiX<.&.D x $ % X , ( -.8.3X3XNX8.7.O.5 @ o . . % * * 6 D +.H.zXnXnXxXU.S.n.b.c.c.c.n.c.c.",
"c.c.n.c.n.c.n.c.c.c.c.c.c.c.m.n.n.A.I.R.<X<X:.@.7 > o X > u -.q.2X2X2Xq.7.$.8 *       . + O 4 8 &.H.MXmXmXnXE.V.N.c.c.n.c.c.c.c.",
"c.c.c.b.c.b.c.n.c.c.c.c.c.c.c.c.v.m.V.G.W.J.J.:.@.u > > > i ] $.9.e.8.e.-.) 8 > X X o X X @ , u @.<.jXMXmXnXT.B.n.c.c.c.c.c.c.c.",
"n.c.c.c.c.c.c.n.c.c.c.c.c.c.c.c.c.n.b.B.G.G.J.<XH.;.o.8 4 @ > 5 i u u u i 5 5 5 , , , q q q r r i 2.#.<.gXpXZ.b.n.b.c.c.c.n.n.c.",
"n.n.c.c.c.c.n.c.c.c.c.c.c.c.c.c.c.b.n.b.B.P.E.kXhXH.1.o.4 O + +   X X O X @ 5 5 q q r r r r p r q , u o.;.F.N.n.n.n.n.n.c.b.c.n.",
"n.c.n.c.n.c.c.c.c.c.c.c.c.c.n.n.c.c.x.x.m.B.A.P.Y.R.F.&.o.8 * o         X X , q r r a a a p p a q , 8 o.=.:.N.c.n.n.c.n.c.n.c.c.",
"c.c.c.n.c.n.c.c.c.c.c.c.c.c.n.c.c.c.b.x.m.n.B.S.A.D.G.M.*.+.S 4 @ O X X X # , q r r a a a p p r q , 8 +.:.F.M.n.b.n.c.b.n.n.b.c.",
"n.c.n.c.c.n.c.n.n.c.c.c.c.c.m.m.c.n.x.c.n.n.n.b.B.N.N.M.1.1.*.+.( 8 7 , 5 q # q q r r r e e y i i u o.=.<XY.Z.M.b.c.b.c.c.c.b.n.",
"c.n.c.n.n.c.n.c.c.n.c.c.c.n.m.n.n.c.n.c.n.n.n.v.v.n.v.V.D.F.*.&.&.#.@.@.O.2.q # # , q , q , q i u o.&.F.Y.Y.V.N.b.b.c.c.c.c.n.c.",
"c.n.c.c.c.c.c.n.c.n.c.c.m.n.n.m.c.n.c.n.n.c.c.v.b.b.v.N.D.D.M.:.:.F.K.H.yX#.2.# @   X   X X , t _ *.M.D.P.!.B.b.b.b.c.c.c.c.c.c.",
"n.n.c.c.c.c.n.c.n.c.c.c.n.m.n.m.n.c.n.c.n.c.v.v.b.b.b.N.A.D.V.M.Z.Y.kXhXuXuX2.#           X 4 8 Q *.M.Z.G.V.B.b.b.b.c.c.x.c.c.n."
};
