/* XPM */
static char *xpm_[] = {
/* columns rows colors chars-per-pixel */
"64 64 183 2 ",
"   c #272B27",
".  c #282A27",
"X  c #2A2D28",
"o  c #27352A",
"O  c #2B332A",
"+  c #273B2B",
"@  c #2B3D2B",
"#  c #33342B",
"$  c #39362B",
"%  c #343C2C",
"&  c #3C3B2C",
"*  c #433D2D",
"=  c #27452D",
"-  c #2B442D",
";  c #274C2E",
":  c #294B2E",
">  c #394726",
",  c #33432D",
"<  c #3C442C",
"1  c #324A2D",
"2  c #3C4F2B",
"3  c #27502F",
"4  c #29522F",
"5  c #2F4630",
"6  c #274E30",
"7  c #2C4E30",
"8  c #3E4630",
"9  c #324D31",
"0  c #3C4C31",
"q  c #275431",
"w  c #295531",
"e  c #275B35",
"r  c #285B35",
"t  c #275F38",
"y  c #285F38",
"u  c #325433",
"i  c #3C5534",
"p  c #345B35",
"a  c #385C36",
"s  c #2A6137",
"d  c #27613A",
"f  c #29633B",
"g  c #2B693E",
"h  c #346237",
"j  c #356438",
"k  c #396338",
"l  c #336C3A",
"z  c #3A6B3B",
"x  c #396A3A",
"c  c #3A6C3B",
"v  c #396C3B",
"b  c #3B6E3C",
"n  c #3A6C3B",
"m  c #34703C",
"M  c #36733D",
"N  c #35723D",
"B  c #3B713C",
"V  c #39733C",
"C  c #3B733D",
"Z  c #3A723C",
"A  c #3C733D",
"S  c #3E723D",
"D  c #3B773E",
"F  c #3D743D",
"G  c #3B733D",
"H  c #3E7B3F",
"J  c #3C793F",
"K  c #44422D",
"L  c #4C442E",
"P  c #424D29",
"I  c #44492B",
"U  c #4A492C",
"Y  c #51462F",
"T  c #53492F",
"R  c #4F4530",
"E  c #444D31",
"W  c #4C4B31",
"Q  c #534730",
"!  c #554B30",
"~  c #5A4D31",
"^  c #415732",
"/  c #435233",
"(  c #445C37",
")  c #495833",
"_  c #4A5935",
"`  c #555234",
"'  c #5D5132",
"]  c #545C36",
"[  c #5A5A37",
"{  c #565B38",
"}  c #585B38",
"|  c #635334",
" . c #695735",
".. c #655937",
"X. c #6B5936",
"o. c #645C39",
"O. c #6C5C39",
"+. c #705E39",
"@. c #436339",
"#. c #43663A",
"$. c #4F6038",
"%. c #446A3B",
"&. c #4C683C",
"*. c #4A6A3C",
"=. c #53633A",
"-. c #5C643A",
";. c #546B3C",
":. c #44703E",
">. c #45733D",
",. c #4A733D",
"<. c #40793F",
"1. c #48783F",
"2. c #50743F",
"3. c #62613A",
"4. c #6D663E",
"5. c #76633C",
"6. c #78653E",
"7. c #337440",
"8. c #367940",
"9. c #3F7C40",
"0. c #3D7E40",
"q. c #3F7E41",
"w. c #3C7D40",
"e. c #566F40",
"r. c #437940",
"t. c #407D41",
"y. c #417E40",
"u. c #447D41",
"i. c #4B7C42",
"p. c #4C7D42",
"a. c #666B42",
"s. c #7A6740",
"d. c #7B6B42",
"f. c #7D7146",
"g. c #806C42",
"h. c #867145",
"j. c #3F8542",
"k. c #3E8342",
"l. c #3F8844",
"z. c #408041",
"x. c #408241",
"c. c #408142",
"v. c #418342",
"b. c #438242",
"n. c #418543",
"m. c #418743",
"M. c #428743",
"N. c #438542",
"B. c #488343",
"V. c #448843",
"C. c #418844",
"Z. c #438944",
"A. c #438B45",
"S. c #458844",
"D. c #448B45",
"F. c #438D45",
"G. c #448D45",
"H. c #468E45",
"J. c #458F46",
"K. c #468F46",
"L. c #448C45",
"P. c #498845",
"I. c #498B45",
"U. c #459146",
"Y. c #449046",
"T. c #469146",
"R. c #459247",
"E. c #469347",
"W. c #479247",
"Q. c #469447",
"!. c #479547",
"~. c #479447",
"^. c #469347",
"/. c #489647",
"(. c #489547",
"). c #479548",
"_. c #479648",
"`. c #479648",
"'. c #489748",
"]. c #489648",
"[. c #489748",
"{. c #489848",
"}. c #489848",
/* pixels */
"{.{.{.{.{.{._._.{.{./././.W.W.L.V.1.;.) P > - - : 3 w r s t d d d d d d t e 3 = = + = 4 s V 0.V.W././.~._.~._._.{._.'.'.'.'.'.'.",
"{.{.{.{.{.{.{.{.{./.W.W.V.n.v.9.<.,.@.^ 2 > 1 : : 4 r r r s d d d d d t t q 3 3 ; ; ; 4 r l V H n.n.n.C.L.W.~.{._.{.'.'.'.'.'.'.",
"{.{.{.{.{.{.{.{._.W.n.<.A x j k a a r r 4 4 4 r e e r s s t s d d d d d t e e e q q 3 3 4 4 h h j x c G 0.l.W._.{._.'.'.'.'.'.'.",
"{.{.{.{.{.{._.W.J.v.F x p u u 7 4 4 4 q r r r r e s s s t s s t t d t t t t t s r r r q 4 4 4 4 w u p h v G j.J.W._.'.'.'.'.'.'.",
"{.{.{.{.{._.W.A.r.z p 7 w 7 : : 3 q q e r d d d d s s e e e e e e e e t t t t d d d d r q q q q 4 9 9 u u p G v.A.W._.'.'.'.'.'.",
"{.{.{.{.{.~.L.t.x p : = : 6 6 w q r e r s d d d d e e e e e e e r r e e t t r d d d d d d r e q w : 7 : 1 w a Z t.D.W.'.'.'.'.'.",
"'.{.{._._.J.k.Z p 9 5 6 q e r y d s t d d d t r e e e e d s t t d s s r e t e e e t d d d d t e e e w 7 : : u a A v.J._.'.'.'.'.",
"'.~.W.W.Y.n.Z p 9 5 7 6 e t y f f d d d d d t r e e s e d d s s s d d d s e e e e e s s d d d d d s r r q 6 - w k :.v.J.W._.'.'.",
"~.W.n.k.j.8.p 7 - 5 7 e t d 7.t d d d s t r r r t s e d d d d d d d f f d d t e e e e r r s d d d g l v r 6 - - u p b r.A.W._._.",
"~.L.j.J Z p 7 = - 6 e t t d 7.t s s s r r r r r s d d d d d d s d d f f g d d t t e e e r r e d d f N N s e ; = 5 9 p x 9.A.W._.",
"R.Y.k.b u 5 = 6 w e e d t 7.t t r r e q r r r s d d d d s s s s e e f f f g f f d d r e r r r r e y f g f e q : - : 9 a c 9.J._.",
"W.A.w.j 5 = = 6 e r t d d d d t r r q q r r s d d d d d d d d s d t r d f f f f f d r r r r r r e e t t d t q q 6 : 5 w p c n.L.",
"n.<.k u 5 = q e t t t t d d d t r r q e d d d f d d s e d d d d f d d r s t f f f f d d t e q r e e d d s d t y r w : 7 u a F 9.",
"A z p - = 6 q t t t 7.t d d t e r r r e d d f f d s e t d d d d f f d e t e d d f g d d t e e e e e y d g f f d r w w : w p j c ",
"p p 9 : 6 6 q e t 7.7.7.d e e e r r e e d d d f d d s t d d d d f f d d e e e d f f f d e e e e e y e s N N g d y q w 6 6 9 u p ",
"5 5 5 5 6 q t t t t 7.7.t e e e r r e s d d g f d d s s d d d d d f d d e e e t f f g d t e q e q q e s N 7.g d t e q w 6 : - 5 ",
"@ @ - q e s l N g f f f d e e e q q q s s d N N g d s s e e s s d s e s e e s d d d d s e e q e q q e d s g g d d d e e q = = + ",
"o + = 6 e s N N g f d d s e e q q q e e e s N N f d s d e e e s s s e e e s d d d d d e e e 3 3 q q q e d d g g d d d e 6 = + o ",
"o + - q q y s f f f d d e e e e q q e e e q s d g d d d e e e s e e e e s s d d d d e r e e 3 3 e q q q d d f g g f d e q = + o ",
"o + = 6 q e y y d f d d e e e e q q e q 3 3 e s d f d d s e e e e e e e e s d d d d e q q e e 3 e e q e d f f g f d d e q = + o ",
"o + = 6 q y y t d f d d e s e e e q e 3 3 e e d d d d f s s s d s d s d d d d d d d e q e e e e e e e e d d d d d d y y 3 ; + o ",
"o + + ; e y d d d d d d e q e e e e q 3 3 q e e d d d d d d d d d d d d d d d d d s s e e e e 3 q e d e y d d g g s d q q = + o ",
"o + = ; e d d d d s d e q q e e e e e q q 3 3 e s d f f g g f d f f d d d d s s e s r r e e e q q e d d y d d g N N s q 3 = + o ",
"o + = 6 e d d d g f e e q q q e e e e s q q 3 q t d d d g d d d f d f d d e e q r q r q e e 3 3 4 q e s e d g g N m s q q ; + o ",
"o + = 6 e y y f N N s q q e e e e e e e e q r r q r r s s s s s d d s s s e q q q q q q q y q q q e e e d s N N g s q q 3 ; + o ",
"o + = 6 q e y s N m s d e e e e e e e e e e r r r r q e r r s s s d s r e q q 4 3 q 3 q y q q q e e y e e s m m s q q 3 3 = + o ",
"o + = ; q q e y s s d d d d e e e e e q q q q e r r q q q r r r e e e r r q q q 3 3 q q q e e e d d d d d d d g s e 4 3 ; = + o ",
"+ + ; ; ; q e y y y d d d d e e e e s e q q e e r r q q 4 4 r r r r r r r r r q q q q q y e e e d d d d d d d e e q 4 4 ; = + + ",
"= = = ; ; q e y e e d d d d d y t t d d e e e e r q w w w w r r r r 4 r q 4 r r e e e y t d d d d d d d d y q q y q q ; ; = = = ",
": : : : ; q e y e e e d d d g g d d d d t e e e r r q w w r w r r r r q 4 r q r e e e d d d 7.f d g g d d e 4 e q e q ; ; - : - ",
"u u 5 : 6 ; q q e e y d d g N N f d f f d t t e r r r r r r w r q q 4 q 4 4 q q q q t f 7.7.g f g f d d y e q e y q q ; : 1 u u ",
"h p w 9 : ; q q q e e q e s N N g f f f d d s t r r q r r r w w r r r 4 r r 4 r q e d g 7.7.7.g f d d d e e y q y q ; : 5 w p k ",
"Z k p w : : ; q q r 4 r e s g g g g g f d d 7.d t t q q e e e q r q r e q r q r d d f g 7.g g d d d d d r r r q q 4 : ; : w n >.",
"9.A a u 4 : ; 3 r r q r r e s d d g f g f 7.d d d d t q e t t t r s r s s e s f f f f g 7.f g f f d t t r q 4 4 4 4 : : 3 h H x.",
"m.9.b p 4 : ; ; 4 4 q r r r s d d d g g g g 7.d 7.d d 7.t t t d s f f f f d d f f g f f d g g d d e t e r q 4 4 3 ; ; 4 p n x.T.",
"W.A.9.x u : - - ; 4 4 r r e r s d d d f d f d 7.t 7.f d 7.d t e f f f f g g f f f f d d d f d d d e e q q 4 4 ; ; ; : 4 x <.T./.",
"_.R.A.H h 9 : = : : ; 4 r r q q t e t t t t t t t d 7.d g g g 7.g g f g g g d d s s s e s e s e q q q r 4 4 ; = = - : k >.B.(./.",
"_._.W.k.x p 1 = - - ; 3 w e r 4 6 e 6 e e e e e e t d d f g f 7.g f g f d g g d s s e e e s q 4 q q q q 4 4 = - = - p n x.H././.",
"/./.R.A.<.k 9 % # @ = ; q w r q q q e 6 q e q e e e d 7.f g g f d g d d s e t t r r r r e q e r q q r 4 ; = @ , % 1 h H V.(./.}.",
"/.~.W.D.1.%.^ I % $ - : 3 w w w e q q q q q q q e e e t d d d d d d s r e e e e r q r r r r w 4 q q 4 4 ; - % & < ^ %.<.V.^./.}.",
"/.W.V.B.2.-.[ ~ K & @ = - ; 4 q e q e q q e e e r r y s y e s e t e e e s e q r q q r r w q q 3 4 4 : : @ @ % K ! { ;.,.B.V.W.~.",
"/.W.v.1.;.3.X.' L & @ o = - : q q q q q 6 q q q w q q r r e r r s e e e r q q 4 4 r q 4 4 ; 4 4 3 : : = o # & L [ o.-.2.i.v.J.W.",
"~.L.<.>.=...| ~ * $ X o o @ = = 6 6 6 6 : : 6 6 ; q q q w s e r e r e e 4 4 4 4 3 4 4 4 : ; : - ; = = o O O % L ~ ..[ ;.,.v.J.W.",
"~.J.B.:._ ] ` U $ # X   O O o @ + 5 = 5 : - = = - : : q q w q q q r q 3 4 ; ; ; ; : : - - , - @ - @ o X   X # * R [ { =.:.<.J.~.",
"/.W.N.r.%.) / 8 $ # X   . X # $ % # % > > > % @ @ = @ = - ; : - ; ; = = = @ @ @ + = % % % % # % # # X X   X o % < 0 ( #.1.P.W.{.",
"/.W.D.t.b k i 5 , O X X X # $ $ & & * * U I K < % % % % , , , > - - , > % % # % % & K K * * * & & # X X   X o @ - 9 a b u.I./.{.",
"/./.R.A.9.l r w 5 + O O # $ * * * * K L T ' ~ T L * K K K K * L > > I * K K K L T ~ ~ T Y L L * * $ $ # O o = : 6 u x w.D.W.{.{.",
"/./._.Y.k.Z f r q = @ # & * * Y Y * L T ' | | | ! Q T L Q L T * U U U Y L T ! ~ | | | ' T T T T R L & $ @ @ : q w s N k.J.'.{.{.",
"/.'.'.W.l.J m s r ; - , K Q ' | | ~ ~ ! ! | | X.| | ! ! Q ~ ~ | ~ ~ ~ T ! ~ | | | | ' ' ~ ' | | | ' Q K , 5 7 q s v 0.F.R.~.}.~.",
"'.'.}.~.l.k.N g r 4 : 9 R ' .. .X. .| ~ ! ! | | | | ! ! ~ ~ ~ | | ~ ~ ~ ! ~ | | | ' T T ' | X.X.X.| ~ L 8 5 w r g J l.W.~.}.`.}.",
"{.{.}.~.W.A.k.N s 4 1 < E ! ~ | O.+.X.| ~ ! ! ~ ~ ! ! Y ~ Q Q Q T T Q Y Y ! ! ~ ~ ~ T ` | X.X.X. .' T L 8 9 e s m 0.Y.~.R.}.}.}.",
"{.{.{.{.{.L.j.G l p 0 U ! ' ~ | | X.X.| ! T T R * Y Y Y * Y ~ ~ ~ T Q ~ * Y Y T T T T T |  . .| | ' ~ R W i u j V n.U.~.{.}.}.}.",
"{.{.{.{.{.W.n.<.z ( { o...| | ~ ~ ~ ' ~ T L * & * Y Y Y ! ~ | |  .| | T T * * L L L L T ~ ' ~ ~ ~ ' | ....} ( z H n.Y.{.{.{.{.{.",
"{.{.{.{.{.W.V.i.*.=.4.s.5.O.| ! T T T L L & # % * * * ! ~ |  . . . .| | T L * * & & * L Y T Y Y ! | O.5.6.a.$.e.u.A.~.{.{.{.{.{.",
"{.{.{.{.{.W.P.p.e.a.f.h.g.5...T * * * & % @ o # $ * * ! ~ |  . .| | | | T L & % # # $ & * * * L T ' O.s.h.h.a.e.p.P.~.{.{.{.{.{.",
"{.{.{.{.{./.P.p.e.a.d.g.s.O.' L < # # @ = = + @ $ & R Q ~ | |  .| | | ~ T L > @ @ @ - , % % < K L ~ O.6.g.d.a.e.p.P.~.{.{.{.{.{.",
"{.{.{.{.{.W.P.i.*.=.3.o...` W < , - - : : : ; = 5 & & * Q ~ ~ | | | ~ T L K , - ; ; ; ; : 1 - , < U '  .O.3.=.*.B.J.~.}.}.}.}.}.",
"{.{.{.{.{./.P.B.r.&.=.] ] _ i p u w 4 w r w 4 : 5 5 , K T ~ | O. .| ~ Y L & - ; 4 4 q w w 4 r u i ) ) [ =.$.*.>.n.W.~.}.}.}.}.}.",
"{.{.{.{.{.'.W.D.B.u.>.,.>.:.b b c m m M V l q 3 6 7 , I ~ | 6.g.g.5. .~ I 1 1 ; q d d f l g v m S >.>.,.:.1.v.n.J.W.~.}.}.}.}.}.",
"{.{.{.{.{.'._.W.J.J.A.n.N.n.n.v.j.j.j.j.n.H h r r r 9 I ` X.d.h.h.g. .~ I 2 4 r s g g N M 0.0.j.N.N.b.b.N.C.L.Y.W.~.}.}.}.}.}.}.",
"{.{.{.{.{.{.'._.'./.W.W.U.U.U.U.Y.Y.W.Y.L.j.J N A j u 0 W ..s.g.d.5...! 0 u g l M w.k.k.l.L.F.L.L.W.U.U.W.~.~.~.}.}.}.}.}.}.}.}.",
"{.{.{.{.{.{.'.'.'.{.{.{.}.}.}.}.{._.~.{._.W.l.k.v.F h u E ` ..O.O...~ E a j N 0.l.l.l.l.~.~.~./.~.~.}.}.}.}.}.}.}.}.}.}.}.}.}.}.",
"{.{.{.{.{.{.{.{.'.'.}././.}./.}.{.{.{._._.~.W.A.j.9.G x i E ` ` ' ` / ^ k Z k.C.R.R.~.~.~.{./.}.}.}.}.}.}.}.}.}.}.}.}.}.}.}.}.}.",
"{.{.{.{.{.{.{.{.'.'././.}././.}.{.{.{._._._._.Y.l.k.k.Z i 0 I R R W 0 a c H j.W.{.}.}.{.{.{.}.}.}.}.}.}.}.}.}.}.}.}.}.}.}.}.}.}."
};
